# Blender v2.80 (sub 75) OBJ File: 'Low Poly Tree.blend'
# www.blender.org
mtllib nuvens3.mtl
o Icosphere.025_Icosphere.026
v 50.630974 8.179168 -24.666817
v 53.873230 9.099086 -22.066364
v 49.040272 9.023664 -19.744753
v 47.753414 8.710791 -24.998304
v 49.044037 9.016443 -30.092297
v 53.337402 9.177923 -27.592176
v 52.489395 11.401365 -21.169025
v 47.255093 11.213330 -22.932070
v 47.665302 11.080137 -27.524105
v 52.373520 11.494181 -30.379662
v 53.365398 10.882693 -25.179398
v 50.410793 12.079365 -24.816483
v 49.640324 7.882281 -21.857725
v 52.716473 7.882766 -23.022400
v 51.870148 8.798791 -19.978483
v 53.237835 9.116571 -24.911478
v 52.340031 8.284880 -26.411526
v 48.560879 8.556941 -24.703339
v 47.118290 8.832125 -22.021782
v 49.944420 8.344222 -27.317251
v 47.850864 8.733618 -27.240372
v 51.844604 8.811824 -29.785963
v 53.462440 10.147007 -23.861292
v 53.394386 10.142274 -26.479065
v 50.559422 10.351776 -20.381943
v 53.169792 10.316986 -21.521641
v 47.520012 10.166162 -23.791309
v 47.818184 10.317736 -21.491905
v 47.427826 10.314816 -29.818529
v 47.618881 10.174762 -26.404291
v 53.553577 10.314843 -29.818638
v 50.490665 10.273608 -31.003025
v 53.669819 11.331683 -23.002106
v 49.475159 11.495592 -21.555828
v 47.730274 11.127185 -25.010658
v 49.673737 11.133889 -28.716312
v 53.233910 11.234562 -27.490417
v 51.285488 12.405315 -22.320045
v 52.281796 11.611726 -24.989761
v 48.304333 12.576668 -23.167728
v 49.093487 11.617807 -26.073641
v 51.185703 11.560600 -27.092371
vn -0.0456 -0.9916 -0.1209
vn 0.7791 -0.6012 -0.1777
vn -0.1743 -0.9709 -0.1641
vn -0.1793 -0.9837 -0.0148
vn -0.0014 -0.9981 -0.0618
vn 0.9759 0.0093 -0.2179
vn 0.1038 0.3312 0.9378
vn -0.9777 0.0168 -0.2093
vn -0.6244 -0.7074 -0.3314
vn 0.6255 -0.7178 -0.3058
vn 0.8777 0.4732 0.0754
vn -0.2884 0.6618 0.6919
vn -0.9911 -0.1275 -0.0379
vn -0.3523 -0.2483 -0.9023
vn 0.9934 -0.1070 0.0418
vn 0.4576 0.8496 0.2624
vn -0.5000 0.5062 0.7027
vn -0.3446 0.9387 -0.0087
vn -0.1838 0.9792 -0.0862
vn 0.5669 0.8186 0.0924
vn 0.2276 0.9633 -0.1421
vn 0.1382 0.9857 -0.0960
vn 0.1646 0.9856 0.0396
vn -0.0965 0.9628 -0.2523
vn -0.0677 0.9786 -0.1941
vn -0.1505 0.9661 -0.2099
vn -0.0267 0.9471 -0.3198
vn -0.5669 0.7240 -0.3929
vn -0.7925 0.5745 -0.2050
vn 0.1031 0.9810 -0.1642
vn -0.1305 0.7770 0.6159
vn -0.0667 0.7163 0.6946
vn 0.2199 0.9545 -0.2017
vn 0.3751 0.9174 -0.1327
vn 0.5122 0.8242 -0.2416
vn 0.9932 0.1090 -0.0399
vn 0.9789 0.1964 0.0568
vn 0.7348 0.6593 -0.1596
vn -0.3805 0.8125 -0.4416
vn -0.1393 0.9094 -0.3919
vn -0.1982 0.9358 -0.2916
vn -0.9964 0.0811 0.0242
vn -0.9849 0.1689 -0.0367
vn -0.9733 -0.0659 -0.2198
vn -0.4517 0.6676 0.5918
vn -0.3291 0.5062 0.7972
vn -0.0724 0.6801 0.7295
vn 0.7972 0.3375 0.5006
vn 0.9535 -0.2675 0.1387
vn 0.9890 -0.0856 -0.1206
vn 0.3604 -0.0814 -0.9292
vn 0.3353 -0.3998 -0.8531
vn 0.0409 -0.6166 -0.7862
vn -0.9902 0.1257 0.0606
vn -0.9815 -0.1854 0.0473
vn -0.9900 -0.1336 -0.0444
vn -0.9252 -0.3515 0.1431
vn -0.9131 0.3973 0.0922
vn -0.7628 0.1337 0.6326
vn 0.3992 -0.0473 0.9157
vn 0.3517 0.5021 0.7901
vn 0.7109 0.0992 0.6963
vn 0.9961 0.0847 -0.0260
vn 0.9818 -0.1883 -0.0252
vn 0.9945 -0.0988 0.0347
vn 0.5068 -0.8373 -0.2052
vn 0.0358 -0.9866 -0.1593
vn -0.0470 -0.9742 -0.2207
vn -0.1862 -0.9670 -0.1738
vn -0.1834 -0.9829 -0.0171
vn -0.1808 -0.9834 -0.0179
vn -0.1872 -0.9823 0.0001
vn -0.3459 -0.9339 -0.0902
vn -0.3487 -0.8625 0.3669
vn 0.6723 -0.7402 0.0080
vn 0.7998 -0.5792 -0.1576
vn -0.0528 -0.9923 -0.1119
vn -0.0315 -0.8831 0.4681
vn 0.1200 -0.9410 0.3165
vn 0.5068 -0.7764 0.3746
usemtl Material.027
s off
f 1//1 14//1 13//1
f 2//2 14//2 16//2
f 1//3 13//3 18//3
f 1//4 18//4 20//4
f 1//5 20//5 17//5
f 2//6 16//6 23//6
f 3//7 15//7 25//7
f 4//8 19//8 27//8
f 5//9 21//9 29//9
f 6//10 22//10 31//10
f 2//11 23//11 26//11
f 3//12 25//12 28//12
f 4//13 27//13 30//13
f 5//14 29//14 32//14
f 6//15 31//15 24//15
f 7//16 33//16 38//16
f 8//17 34//17 40//17
f 9//18 35//18 41//18
f 10//19 36//19 42//19
f 11//20 37//20 39//20
f 39//21 42//21 12//21
f 39//22 37//22 42//22
f 37//23 10//23 42//23
f 42//24 41//24 12//24
f 42//25 36//25 41//25
f 36//26 9//26 41//26
f 41//27 40//27 12//27
f 41//28 35//28 40//28
f 35//29 8//29 40//29
f 40//30 38//30 12//30
f 40//31 34//31 38//31
f 34//32 7//32 38//32
f 38//33 39//33 12//33
f 38//34 33//34 39//34
f 33//35 11//35 39//35
f 24//36 37//36 11//36
f 24//37 31//37 37//37
f 31//38 10//38 37//38
f 32//39 36//39 10//39
f 32//40 29//40 36//40
f 29//41 9//41 36//41
f 30//42 35//42 9//42
f 30//43 27//43 35//43
f 27//44 8//44 35//44
f 28//45 34//45 8//45
f 28//46 25//46 34//46
f 25//47 7//47 34//47
f 26//48 33//48 7//48
f 26//49 23//49 33//49
f 23//50 11//50 33//50
f 31//51 32//51 10//51
f 31//52 22//52 32//52
f 22//53 5//53 32//53
f 29//54 30//54 9//54
f 29//55 21//55 30//55
f 21//56 4//56 30//56
f 27//57 28//57 8//57
f 27//58 19//58 28//58
f 19//59 3//59 28//59
f 25//60 26//60 7//60
f 25//61 15//61 26//61
f 15//62 2//62 26//62
f 23//63 24//63 11//63
f 23//64 16//64 24//64
f 16//65 6//65 24//65
f 17//66 22//66 6//66
f 17//67 20//67 22//67
f 20//68 5//68 22//68
f 20//69 21//69 5//69
f 20//70 18//70 21//70
f 18//71 4//71 21//71
f 18//72 19//72 4//72
f 18//73 13//73 19//73
f 13//74 3//74 19//74
f 16//75 17//75 6//75
f 16//76 14//76 17//76
f 14//77 1//77 17//77
f 13//78 15//78 3//78
f 13//79 14//79 15//79
f 14//80 2//80 15//80
o Icosphere.024_Icosphere.025
v 54.980000 3.792974 -19.584009
v 56.881638 5.429613 -16.789490
v 54.164604 5.354191 -14.504877
v 52.500248 5.381380 -19.650450
v 54.166683 5.346929 -24.687668
v 57.109329 5.346930 -22.738214
v 56.103661 7.731893 -15.906452
v 53.161003 7.543858 -17.641399
v 52.914444 7.863903 -22.649162
v 56.045246 7.829546 -24.985178
v 57.095833 7.593946 -19.958706
v 54.938263 8.934421 -19.670696
v 54.501949 4.212809 -16.584177
v 56.231579 4.212809 -17.730026
v 55.755527 5.129318 -14.734883
v 57.362766 5.154183 -19.635504
v 56.231579 4.212809 -21.437992
v 53.432957 4.212816 -19.584009
v 53.084091 5.162652 -16.745617
v 54.501949 4.212809 -22.583841
v 52.954891 5.126206 -22.583851
v 55.753532 5.126202 -24.437855
v 57.195377 6.601417 -18.403513
v 57.769619 6.601995 -21.441158
v 55.018654 6.682303 -15.131912
v 56.486172 6.647513 -16.253447
v 52.756092 6.626361 -18.381943
v 53.477562 6.648263 -16.224186
v 53.258015 6.645391 -24.418356
v 52.190285 6.601971 -21.441208
v 56.701984 6.645391 -24.418356
v 54.980000 6.604136 -25.583731
v 56.767281 7.662210 -17.710320
v 54.409096 7.826119 -16.287090
v 53.016434 7.850694 -20.020643
v 53.901001 8.062853 -24.832094
v 56.897587 7.987190 -22.439661
v 55.428352 8.745628 -17.027430
v 56.231834 8.462645 -19.824104
v 53.750870 8.907195 -17.873302
v 53.949829 8.725182 -21.430876
v 55.363781 8.861735 -22.530870
vn 0.1019 -0.9828 0.1538
vn 0.7972 -0.5729 0.1902
vn -0.2608 -0.9609 0.0929
vn -0.2608 -0.9609 -0.0929
vn 0.1019 -0.9828 -0.1538
vn 0.9851 -0.0303 0.1695
vn 0.1800 0.3229 0.9291
vn -0.9804 0.0007 0.1971
vn -0.7610 -0.4323 -0.4837
vn 0.7267 -0.4470 -0.5216
vn 0.9370 0.1698 0.3054
vn -0.4691 0.6053 0.6431
vn -0.9832 0.0169 0.1817
vn -0.5506 -0.2182 -0.8058
vn 0.9310 -0.1426 -0.3359
vn 0.6794 0.6991 0.2229
vn -0.7127 0.4057 0.5722
vn -0.6594 0.7512 0.0294
vn 0.0745 0.9265 -0.3690
vn 0.7122 0.6999 0.0540
vn 0.3454 0.9381 0.0275
vn 0.4965 0.8675 -0.0313
vn 0.4932 0.8423 -0.2173
vn -0.1303 0.9905 -0.0446
vn -0.2343 0.9549 -0.1826
vn -0.5162 0.8420 -0.1566
vn -0.1088 0.9924 -0.0569
vn -0.7402 0.6682 -0.0756
vn -0.9056 0.4102 0.1079
vn 0.0663 0.9961 0.0589
vn -0.2360 0.7546 0.6123
vn -0.1194 0.6996 0.7045
vn 0.3430 0.9393 0.0035
vn 0.6595 0.7430 0.1143
vn 0.7130 0.6963 0.0830
vn 0.8399 0.5424 0.0188
vn 0.8890 0.3334 -0.3139
vn 0.8855 0.3391 -0.3175
vn -0.0149 0.4493 -0.8933
vn -0.5602 0.0124 -0.8282
vn -0.8814 0.2913 -0.3718
vn -0.8517 0.5229 0.0357
vn -0.8980 0.4089 0.1628
vn -0.9376 0.3331 0.0999
vn -0.6666 0.5538 0.4989
vn -0.5225 0.4518 0.7231
vn -0.1269 0.6706 0.7309
vn 0.9185 0.2186 0.3295
vn 0.9356 0.1784 0.3048
vn 0.9460 0.2973 0.1292
vn 0.5599 -0.0841 -0.8243
vn 0.5355 -0.3243 -0.7798
vn 0.0428 -0.5981 -0.8003
vn -0.9202 0.2152 -0.3269
vn -0.9176 -0.2181 -0.3323
vn -0.9144 -0.3903 -0.1078
vn -0.9364 0.1619 0.3114
vn -0.9396 0.1391 0.3128
vn -0.9001 0.0887 0.4265
vn 0.6061 -0.0404 0.7944
vn 0.5512 0.4424 0.7075
vn 0.8706 0.0683 0.4872
vn 0.9155 0.3631 0.1731
vn 0.9816 -0.0444 0.1856
vn 0.9191 -0.3815 -0.0988
vn 0.5324 -0.7824 -0.3231
vn 0.2088 -0.9258 -0.3152
vn -0.0491 -0.8824 -0.4679
vn -0.4747 -0.8041 -0.3578
vn -0.5003 -0.8473 -0.1783
vn -0.7780 -0.6247 -0.0662
vn -0.7798 -0.6162 0.1103
vn -0.5609 -0.8034 0.1999
vn -0.5509 -0.7661 0.3311
vn 0.7270 -0.6791 -0.1016
vn 0.6397 -0.7687 0.0000
vn 0.3180 -0.9481 0.0000
vn -0.0558 -0.8790 0.4735
vn 0.2096 -0.9252 0.3164
vn 0.7219 -0.6213 0.3048
usemtl Material.033
s off
f 43//81 56//81 55//81
f 44//82 56//82 58//82
f 43//83 55//83 60//83
f 43//84 60//84 62//84
f 43//85 62//85 59//85
f 44//86 58//86 65//86
f 45//87 57//87 67//87
f 46//88 61//88 69//88
f 47//89 63//89 71//89
f 48//90 64//90 73//90
f 44//91 65//91 68//91
f 45//92 67//92 70//92
f 46//93 69//93 72//93
f 47//94 71//94 74//94
f 48//95 73//95 66//95
f 49//96 75//96 80//96
f 50//97 76//97 82//97
f 51//98 77//98 83//98
f 52//99 78//99 84//99
f 53//100 79//100 81//100
f 81//101 84//101 54//101
f 81//102 79//102 84//102
f 79//103 52//103 84//103
f 84//104 83//104 54//104
f 84//105 78//105 83//105
f 78//106 51//106 83//106
f 83//107 82//107 54//107
f 83//108 77//108 82//108
f 77//109 50//109 82//109
f 82//110 80//110 54//110
f 82//111 76//111 80//111
f 76//112 49//112 80//112
f 80//113 81//113 54//113
f 80//114 75//114 81//114
f 75//115 53//115 81//115
f 66//116 79//116 53//116
f 66//117 73//117 79//117
f 73//118 52//118 79//118
f 74//119 78//119 52//119
f 74//120 71//120 78//120
f 71//121 51//121 78//121
f 72//122 77//122 51//122
f 72//123 69//123 77//123
f 69//124 50//124 77//124
f 70//125 76//125 50//125
f 70//126 67//126 76//126
f 67//127 49//127 76//127
f 68//128 75//128 49//128
f 68//129 65//129 75//129
f 65//130 53//130 75//130
f 73//131 74//131 52//131
f 73//132 64//132 74//132
f 64//133 47//133 74//133
f 71//134 72//134 51//134
f 71//135 63//135 72//135
f 63//136 46//136 72//136
f 69//137 70//137 50//137
f 69//138 61//138 70//138
f 61//139 45//139 70//139
f 67//140 68//140 49//140
f 67//141 57//141 68//141
f 57//142 44//142 68//142
f 65//143 66//143 53//143
f 65//144 58//144 66//144
f 58//145 48//145 66//145
f 59//146 64//146 48//146
f 59//147 62//147 64//147
f 62//148 47//148 64//148
f 62//149 63//149 47//149
f 62//150 60//150 63//150
f 60//151 46//151 63//151
f 60//152 61//152 46//152
f 60//153 55//153 61//153
f 55//154 45//154 61//154
f 58//155 59//155 48//155
f 58//156 56//156 59//156
f 56//157 43//157 59//157
f 55//158 57//158 45//158
f 55//159 56//159 57//159
f 56//160 44//160 57//160
