<svg width="1920" height="600" viewBox="0 0 1920 600" xmlns="http://www.w3.org/2000/svg">
  <title></title>
  <g fill="none" fill-rule="evenodd">
    <path d="M1257.926-10.94l.264 3.274c.005.053.05.077.07.116 2.26 21.52 8.083 50.174-11.73 64.65-15.417 11.264-38.887 10.185-56.86 8.524-7.45-.693-15.71-2.79-23.46-2.275 1.116-6.41 4.955-12.5 11.992-18.103 2-1.593-1.21-2.468-2.576-1.38-5.773 4.6-10.44 9.683-12.868 16.43-.324-.612-.627-1.232-.97-1.834-.856-1.512-4.466-.103-3.668 1.308.844 1.49 1.605 3.007 2.338 4.536-.647.183-1.288.394-1.922.633-2.162.822-1.565 2.557.62 1.726.692-.263 1.41-.414 2.12-.59l.086.184c-.78 8.742 4.386 17.38 9.275 24.132.84 1.152 4.087-.134 3.49-1.6-2.937-7.236-5.214-14.696-8.24-21.858.01-.496.01-.99.05-1.48 6.452-.15 13.264 1.95 19.423 2.363 8.3.554 16.587 1.002 24.905.768 13.984-.392 29.082-3.666 40.546-12.043 20.477-14.96 12.616-47.673 10.782-68.788-.094-1.093-3.778-.088-3.666 1.307M1099.764-53.908c12.763 6.794 18.357 18.462 19.066 31.047-18.11 3.738-36.397 6.593-54.736 9.18-.983-14.634-1.553-29.293-1.973-43.95 12.833-2.953 26.14-2.4 37.644 3.722m5.265 72.446c-10.403 12.83-24.126 18.722-37.594 18.397-.84-14.402-1.71-28.8-2.836-43.175-.156-2.03-.277-4.064-.416-6.097 18.33-2.595 36.603-5.518 54.696-9.295.448 14.27-5.244 29.55-13.85 40.17m-76.425-4.476c-3.62-5.6-6.503-12.673-8.293-20.268 10.25-1.416 20.495-2.93 30.745-4.316 3.12-.42 6.24-.858 9.36-1.295.055.865.098 1.73.16 2.593 1.045 15.29 1.952 30.582 2.863 45.876-13.428-1.56-26.246-9.313-34.835-22.59m33.47-73.238c-.02-.757-.048-1.514-.07-2.27-.27-9.755-.45-19.51-.627-29.267-.147-7.96-.905-17.354 1.474-25.016.627-2.02-3.126-1.587-3.595-.077-2.087 6.725-1.457 13.48-1.302 20.43.202 9.02-.102 18.117.105 27.175.075 3.35.173 6.702.266 10.05-14.385 4.29-28.016 12.378-37.666 21.518-.75.71 2.72.06 3.37-.56 9.078-8.597 21.34-15.77 34.338-19.474.417 14.513 1.035 29.02 1.968 43.512-1.337.185-2.67.378-4.007.563-12.063 1.65-24.168 3.648-36.284 5.265-4.57-20.82-.794-45.18 19.016-53.95 2.453-1.087.02-1.356-1.366-.743-21.453 9.5-25.943 33.473-21.202 55.16-4.004.504-8.01.976-12.016 1.348-16.757 1.57-33.1 6.016-49.872 7.585-.74.07-4.13 1.834-2.328 1.665 16.775-1.57 33.15-5.63 49.87-7.586 4.87-.57 9.737-1.207 14.596-1.865 2.375 10.117 6.74 19.667 12.317 26.93 8.875 11.553 21.492 17.12 34.508 17.618 1.362 22.86 2.737 45.722 4.582 68.566.153 1.902 3.89.97 3.763-.626-1.826-22.623-3.053-45.296-4.368-67.954 12.788-.522 25.645-5.803 35.458-15.214 12.16-11.66 19.7-29.54 19.207-45.96 11.31-2.433 22.552-5.18 33.685-8.46 1.412-.42 3.197-2.118.615-1.358-11.352 3.345-22.82 6.14-34.35 8.593-.846-15.374-8.874-29.287-27-35.324-10.316-3.44-21.845-3.064-33.086-.272M850.377-31.778c-1.46-8.23-1.487-16.68.047-24.856 1.005-.078 2.43-.594 2.715-1.306 5.424-13.53 12.442-29.666 25.048-35.662 2.957.11 6.084 1.25 9.346 3.78.988.764 4.374-.933 3.378-1.708-2.415-1.872-4.76-3.157-7.032-3.964 4.29-.863 9.13-.662 14.64.985 15.248 4.552 23.9 20.256 29.005 34.154 10.288 27.99 4.876 66.584-28.07 75.673-28.474 7.854-45.043-24.287-49.078-47.095m2.326-33.59c3.137-9.184 10.055-22.73 19.29-26.946-7.916 5.875-13.85 15.103-17.842 23.802-.6 1.31-1.148 2.645-1.7 3.974.09-.275.16-.557.253-.83m78.488 3.705c-6.072-17.964-18.63-34.462-38.622-36.6-4.81-.517-9.21.205-13.223 1.793-20.358-1.528-33.607 36.442-33.736 53.11-.226 28.68 17.52 66.52 51.32 61.107 37.63-6.03 44.483-49.19 34.26-79.41M1329.006 193.63c4.854-1.27 10.388-6.805 9.322-12.28-2.31-11.883-20.16-10.215-23.32.16-.33 1.082 3.326.333 3.683-.838 2.567-8.42 12.99-6.026 15.695.557 1.07 2.61-.475 5.585-1.713 7.715-7.23 4.215-12.445 3.488-15.652-2.184-.686-1.13-1.356-2.272-2.01-3.42-.456-.8-2-.242-2.592.058-7.337 3.705-16.727 12.7-23.63 2.31-2.952-4.45 3.064-9.376.594-13.31-.696-1.116-4.21.444-3.664 1.31 1.953 3.105-2.124 7.642-1.163 11.207 1.238 4.586 4.732 6.83 9.1 8.263 6.06 1.986 13.148-4.18 18.352-7.47 4.122 6.742 8.692 10.092 17 7.92M1383.796 210.406c-6.864-3.723 3.34-16.2 9.773-24.7.185 2.645.266 5.31.38 7.995.116 2.868 1.187 5.37 1.798 8.164 1.897 8.667-4.784 12.438-11.952 8.542m15.98-5.302c-.146-5.32-2.05-10.08-2.27-15.387-.124-2.942-.268-5.837-.598-8.694.453-.72.81-1.364 1.014-1.893.13-.325-.523-.372-1.31-.237-.443-2.827-1.123-5.61-2.264-8.358-.44-1.07-3.322.46-3.66 1.113-3.332 6.413-7.262 11.935-12.803 3.42-2.343-3.588-3.45-7.835-5.83-11.42-.642-.96-4.088.68-3.667 1.31 3.706 5.585 5.598 17.236 14.258 17.186 4.59-.025 7.2-3.172 9.246-6.753.642 2.25 1.07 4.534 1.346 6.84-3.978 7.994-11.404 14.047-15.01 22.344-3.443 7.927 7.796 10.26 13.33 9.888 4.936-.332 8.35-4.415 8.22-9.358M1343.836 196.65c5.46-1.577 11.237-1.073 16.712-2.66.543-.157 2.245-.65 2.08-1.493-.72-3.752-4.17-7.733-5.905-11.094-1.213-2.348-2.3-4.78-2.974-7.346-.942-3.603.308-4.19 3.696-3.278.962.258 4.244-1.473 2.918-1.83-5.262-1.418-11.726-.34-10.278 6.416.838 3.918 3.053 7.63 4.974 11.09 1.08 1.934 2.828 4.177 3.588 6.413-4.737.904-9.637.746-14.313 2.097-1.546.445-3.062 2.426-.5 1.682M940.878 223.182c.213-2.186 3.164-28.834 6.856-26.022 7.96 6.073-2.073 23.788-6.324 28.98-.21.25-.423.43-.632.652-.04-1.273-.01-2.496.1-3.61m-3.207 7.903c1.335 10.488 6.247 20.49 18.57 18.066 1.786-.354 2.94-2.574.363-2.068-9.88 1.945-14.582-8.387-15.616-17.462 9.334-5.54 17.372-25.512 10.116-34.195-2.317-2.77-6.817.342-8.357 2.51-4.616 6.518-4.85 15.242-5.357 22.938-.17 2.575-.157 5.41.092 8.264-6.844 2.75-14.625-5.326-18.013-10.386-2.892-4.318-4.46-9.494-5.09-14.603-.147-1.16-3.845-.108-3.667 1.308 1.526 12.377 12.59 30.2 26.958 25.63M1164.093 190.322c-2.486 1.978-4.943 4.073-7.485 6.02-3.247-2.516-6.708-4.715-10.68-6.162-1.092-.397-4.41 1.428-2.86 1.997 3.98 1.452 7.436 3.687 10.673 6.246-3.023 2.077-6.223 3.845-9.816 4.867-2.27.65-1.555 2.49.665 1.857 3.985-1.136 7.532-3.068 10.883-5.34 3.737 3.146 7.22 6.666 10.905 9.85.95.824 4.383-.845 3.375-1.72-3.844-3.32-7.477-6.958-11.382-10.197 2.768-2.08 5.44-4.322 8.144-6.478 1.988-1.59-1.293-1.842-2.42-.94M994.48 210.234c-7.974.73-15.96 2.427-23.928.743-1.032-.217-4.286 1.605-2.89 1.903 8.508 1.8 16.915.115 25.442-.662 1.215-.112 3.89-2.214 1.376-1.984M974.69 224.447c-1.846-.192-3.626 2.528-1.09 2.794 7.185.746 14.174-.02 21.18-1.713 2-.485 2.637-3.332.125-2.726-6.698 1.616-13.34 2.36-20.215 1.647M1049.193 228.603c-7.675 1.983-2.087-4.896-.907-6.024 2.023-1.94 4.692-3.292 7.148-4.565 1.14-.59 2.373-1.16 3.63-1.7 4.35 5.823-4.334 10.856-9.87 12.288m28.415-4.144c.31 1.183 4.006-.02 3.668-1.31-1.25-4.772-2.47-9.038-7.476-10.758-3.88-1.33-8.418-.135-12.177 1.082-1.62-1.564-3.524-2.883-4.653-3.766-2.514-1.972-23.556-15.373-10.306-17.413 1.79-.277 2.973-2.403.383-2.004-5.132.79-9.406 2.93-7.777 8.813 1.87 6.76 13.147 11.244 18.185 15.506.1.08.164.16.255.245-7.057 2.708-17.052 7.83-16.112 15.13.084.176.218.294.41.346 7.482 2.814 18.67-3.122 22.126-9.868.983-1.917.208-3.84-1.185-5.564 1.083-.318 2.17-.577 3.246-.718 7.718-1 9.8 4.115 11.413 10.28M1113.39 198.866c-4.51 1.926-10.656 4.295-11.945-2.286-.68-3.486-.046-7.02-2.31-10.038-.773-1.034-4.18.62-3.665 1.31 3.192 4.257-.03 14.512 7.2 15.163 3.494.314 6.46-.64 9.656-1.98 5.17-2.158 10.054-4.303 11.78 2.72.247 1.014 3.95-.15 3.664-1.31-1.92-7.816-8.515-6.087-14.38-3.58M1237.827 187.788c-8.158-.22-16.6-.944-24.686-.044-1.834-4.105-4.143-7.94-6.75-11.21-.706-.89-4.014.867-3.665 1.306 2.44 3.06 4.62 6.66 6.41 10.5-5.186.98-10.17 2.787-14.763 6.052-2.076 1.472 1.266 1.716 2.408.905 4.032-2.86 8.5-4.39 13.17-5.162 2.958 7.01 4.487 14.756 3.38 21.828-.13.86 3.497.007 3.647-.956 1.088-6.954-.285-14.474-3.05-21.362 7.21-.6 14.732.164 21.763.358 1.174.03 4.263-2.153 2.137-2.215M1807.723 170.566c-2.858.38-4.964 2.627-7.304 4.087-.23.144-1.043.75-.317.85.697.093 1.583-.23 2.162-.597.934-.58 1.836-1.2 2.72-1.854.362-.266.72-.534 1.082-.797.14-.107.284-.202.433-.294l.047-.03c.666-.104 1.505-.42 1.962-.92.493-.54-.52-.48-.787-.444M1788.688 256.266c11.272-19.874-1.43-40.494-16.813-53.842-.955-.826-3.842.644-2.79 1.56 14.94 12.963 27.636 32.893 16.614 52.33-.793 1.396 2.4.993 2.988-.048M1752.612 191.546c.69-.82 1.698-2.435 2.847-2.6.667-.092 1.598-.616 1.635-1.382.044-.795-.94-.917-1.517-.84-2.474.354-4.14 2.402-5.65 4.198-.475.562-.165 1.256.512 1.412.792.188 1.663-.184 2.172-.788M1779.728 181.93c-.03.006-.014.005-.027.005h-.01c.014 0 .024-.006.038-.006m-1.86.972c-.42.612.464.732.873.693 1.493-.16 3.554-1.096 3.488-2.842-.037-1.135-3.12-.183-3.087.724.007.186-.005.43-.073.617-.476.164-.942.42-1.2.808M1747.796 233.06c.62-.074 3.448-1.592 1.946-1.414-1.8.214-3.51.647-5.24 1.193-2.33.726-5.23 2.28-7.695 1.53-.883-.27-3.14 1.23-2.877 1.313 4.606 1.406 9.39-2.09 13.866-2.624M1723.658 197.346c-2.937.254-5.702.345-8.514-.675-.878-.323-3.667 1.19-2.4 1.652 3.2 1.164 6.447 1.053 9.79.77.693-.06 1.616-.397 2.013-1.01.406-.63-.458-.767-.89-.736M1729.65 259.08c.68-.154 1.442-.51 1.706-1.192.893-2.323 1.384-4.596-.66-6.406-.795-.698-3.68.706-2.822 1.464 1.8 1.592 1.145 3.632.38 5.627-.263.678 1.14.563 1.397.507" fill-opacity=".2" fill="#45555F"/>
    <path d="M1759.29 250.718c2.934-.257 14.45-.64 12.23-6.427-.95-2.478-3.34-3.417-5.69-4.213-1.644-.555-7.196-.72-7.768-2.394-1.58-4.57 3.05-9.365 2.176-13.935-.952-4.968-9.464.582-11.243 1.648-1.86 1.11.02 2.517 1.512 1.624.833-.5 6.02-3.985 6.588-2.54.465 1.203-.362 3.19-.67 4.33-.793 2.9-2.21 6.386-1.557 9.44.722 3.37 5.606 3.04 8.38 3.753 1.015.26 8.552 3.632 4.144 5.248-2.463.905-5.383 1.023-7.98 1.252-1.757.16-2.258 2.407-.122 2.216M1700.616 191.648c-2.876 1.763-5.754 3.53-8.627 5.29-1.84 1.128.027 2.69 1.556 1.75 2.88-1.76 5.753-3.526 8.63-5.29 1.84-1.13-.028-2.686-1.56-1.75M1707.295 223.557c3.488 1.145 2.465 4.707 1.453 7.142-1.59 3.817-4.72 6.827-2.932 11.16.984 2.397 5.604 1.608 7.487 2.297 3.237 1.193 2.602 5.736.534 7.44-2.32 1.914-5.865 2.63-8.64 3.755-1.75.713-1.447 1.617.323.898 4.408-1.788 10.798-3.052 13.157-7.663 1-1.955-.947-4.724-2.498-5.74-2.59-1.708-6.176.618-7.675-3.03-2.602-6.326 10.755-14.595-.06-18.14-5.426-1.783-11.745 3.756-15.78 6.418-1.267.834 1.876.193 2.403-.157 3.497-2.308 7.416-5.96 12.227-4.38M1660.434 140.18c.13 1.51 3.25.648 3.14-.588l-.78-9.02c-.13-1.51-3.25-.653-3.142.588.26 3.004.52 6.01.782 9.02M1659.68 78.795c-1.084-.96-3.95.588-2.76 1.637 1.684 1.486 2.397 3.867 3.53 5.758.727 1.213 3.62-.207 2.756-1.642-1.144-1.914-1.812-4.243-3.525-5.753M1667.4 236.23c-.14-1.59-3.272-.792-3.155.544 1.115 12.744 2.357 26.68 12.338 35.835 1.007.924 3.89-.573 2.77-1.605-9.7-8.902-10.872-22.406-11.952-34.775M1662.377 197.587c.125 1.445 3.23.552 3.13-.616l-.78-9.02c-.126-1.444-3.23-.55-3.13.618.258 3.006.52 6.014.78 9.02M1691.135 242.333c-2.45.216-4.502.825-6.19 2.724-.482.543-.174 1.21.492 1.35.792.17 1.648-.2 2.174-.79.722-.814 1.524-.976 2.572-1.067.747-.07 1.65-.35 1.977-1.106.293-.68-.4-1.164-1.025-1.11M1670.05 205.163c.96-.133 1.825-.422 2.68-.877.446-.236 1.42-.975 1.702-1.015.705-.1 1.6-.363 2.007-1.015.39-.62-.444-.822-.896-.757-.96.138-1.824.427-2.68.88-.445.237-1.424.974-1.7 1.014-.71.1-1.606.364-2.015 1.01-.39.625.444.823.9.76M1661.757 206.65c.023-.005.028-.005 0 0m3.582-1.007c.66-1.31.11-2.52-1.198-3.09-.674-.29-1.654.087-2.202.486-.424.31-.846.96-.165 1.258.832.362.94 1.243.393 1.93-.148.19-.243.268-.424.397-.01.008-.06.03-.1.054-.022.003-.024.003-.05.012-.342.078-.933-.225-1.34-.52-.004-.06 0-.118-.004-.177.527-.158 1.042-.44 1.3-.894.368-.653-.43-.9-.933-.858-1.538.133-3.617.544-3.502 2.462.035.568.076.794.552 1.135.35.25.746.43 1.154.562.86.27 1.797.235 2.67.035 1.55-.354 3.115-1.343 3.85-2.794M1661.366 114.258c-.457.544-.92 1.093-1.37 1.635-.486.572.508.624.832.58.713-.09 1.553-.398 2.03-.967.456-.542.913-1.09 1.373-1.636.483-.572-.51-.624-.837-.583-.71.1-1.55.405-2.027.97M1669.15 169.14c-.228-2.63-.82-5.093-2.157-7.388-.525-.903-3.49.395-3.07 1.11 1.335 2.302 1.92 4.767 2.154 7.39.07.767 3.167-.042 3.073-1.11" fill-opacity=".2" fill="#45555F"/>
    <path d="M1779.42-184.256c-.176-1.074-3.185-.15-3.094.874.04.502.084 1.004.128 1.507.013.152.076.27.155.37 2.47 15.17 4.768 30.367 6.966 45.58-3.608 1.762-7 3.87-9.778 6.93-1.188 1.31 1.91.8 2.51.138 2.16-2.373 4.728-4.136 7.485-5.606 2.86 19.873 5.55 39.776 8.155 59.687-1.106.374-2.216.736-3.32 1.116-1.92.662-1.127 2.824.787 2.168.942-.325 1.89-.634 2.835-.954 1.996 15.27 3.962 30.55 5.93 45.824-3.408.91-6.78 1.944-10.04 3.495-2 .957-.015 1.75 1.327 1.113 2.877-1.372 5.875-2.3 8.906-3.114 2.023 15.668 4.075 31.333 6.19 46.99-12.885 2.19-25.78 4.325-38.67 6.473-1.038-4.02-2.596-7.837-5.495-11.18-.546-.63-2.284.14-2.683.623-1.72 2.072-3.077 4.15-4.177 6.632-.58 1.306 2.524.628 2.912-.252.666-1.5 1.4-2.825 2.267-4.104 1.952 2.695 3.15 5.687 3.998 8.812-11.705 1.966-23.41 3.953-35.084 6.086-6.338 1.158-12.675 2.324-19.012 3.493-1.188-2.192-2.59-4.246-4.48-5.923-1.118-1.002-3.977.565-2.747 1.66 1.588 1.418 2.81 3.09 3.848 4.88-10.42 1.925-20.837 3.88-31.225 5.932-6.343 1.252-12.66 2.622-18.97 4.004-.744-1.436-1.617-2.824-2.71-4.13-.647-.778-3.417.704-3.073 1.11.99 1.19 1.785 2.45 2.483 3.743-.81.18-1.624.355-2.434.533-8.842 1.956-21.048 6.83-29.855 3.258-.803-.33-3.613 1.106-2.425 1.588 5.343 2.173 10.244.913 15.796.223 6.525-.81 13.11-2.62 19.607-4.245 2.056 4.388 2.992 9.21 4.534 13.93.245.757 3.333-.313 3.073-1.112-1.5-4.604-2.432-9.298-4.38-13.6.847-.2 1.703-.398 2.55-.582 15.86-3.456 31.842-6.262 47.788-9.258.834 1.617 1.56 3.296 2.284 4.966.633 1.457 3.698.325 3.075-1.118-.648-1.493-1.298-3.002-2.025-4.474 1.75-.335 3.5-.655 5.25-1 16.11-3.13 32.285-5.92 48.474-8.625 1.15 4.84 1.604 9.95 2.748 14.78.226.966 3.326-.03 3.072-1.116-1.107-4.68-1.596-9.544-2.658-14.19 12.844-2.14 25.696-4.242 38.532-6.418.198 1.463.387 2.923.587 4.386 2.253 16.522 4.387 33.065 6.546 49.6-3.433 1.31-6.593 3.226-9.178 6.076-1.32 1.452 1.78 1.7 2.708.683 1.897-2.088 4.23-3.504 6.76-4.527 2.012 15.406 4.07 30.806 6.24 46.188-3.682.723-6.964 2.286-8.727 6.22-.324.716 2.67.19 3.086-.736 1.2-2.67 3.372-3.69 5.83-4.126.226 1.604.437 3.215.666 4.82 1.965 13.69 4.054 27.35 6.627 40.936-3.086.99-6.014 2.418-8.668 4.63-1.645 1.376 1.077 1.75 2.085.91 2.14-1.78 4.476-2.942 6.93-3.755.39 2.014.755 4.036 1.17 6.046 1.54 7.498 3.14 14.977 4.737 22.463.853 3.996 2.056 7.855 3.127 11.754-.84.155-1.71.685-1.65 1.275.363 3.693.743 6.963 3.945 9.202.88.612 3.083-.06 2.935-1.318-.765-6.627-2.577-12.968-4.695-19.284-2.362-7.044-3.21-15.04-4.73-22.315-.602-2.886-1.145-5.783-1.7-8.68 2.442-.522 4.97-.803 7.535-1.028 1.274-.11 3.145-2.222 1.016-2.04-3.025.267-6.015.63-8.9 1.28-2.577-13.673-4.69-27.41-6.69-41.19-.195-1.35-.37-2.693-.563-4.035 1.193-.052 2.39-.073 3.518-.156 1.033-.08 3.267-1.83 1.15-1.67-1.583.116-3.236.19-4.874.35-2.218-15.576-4.296-31.172-6.326-46.77 2.55-.695 5.21-1.088 7.79-1.34 1.783-.18 2.225-2.517.087-2.3-2.755.265-5.512.71-8.16 1.434-2.158-16.574-4.286-33.155-6.558-49.714-.17-1.27-.337-2.54-.51-3.808 7.642-1.304 15.275-2.633 22.9-4.03 6.997-1.28 13.966-2.67 20.93-4.098.797 3.004 1.3 6.096 1.605 9.18.052.525 3.162-.22 3.07-1.115-.288-2.927-.745-5.865-1.472-8.72 13.135-2.73 26.23-5.633 39.32-8.554 1.22 2.825 2.443 5.647 3.662 8.47.59 1.365 3.654.226 3.076-1.112-1.167-2.697-2.33-5.39-3.496-8.08 15.657-3.498 31.322-6.97 47.063-10.1 2.034 4.714 2.872 9.926 4.477 14.87.25.782 3.336-.287 3.07-1.116-1.555-4.79-2.388-9.833-4.294-14.434 16.922-3.498 34.365-8.408 51.516-9.59 10.23-.702 22.267-1.496 29.823-9.333 1.2-1.247-1.9-.696-2.49-.09-9.352 9.7-29.003 7.577-41.577 10.19-12.58 2.615-25.192 5.08-37.8 7.567-.796-1.7-1.765-3.33-3.017-4.84-.652-.79-3.433.678-3.07 1.118 1.135 1.374 2.025 2.847 2.78 4.375-3.537.7-7.074 1.385-10.61 2.102-12.2 2.453-24.35 5.133-36.49 7.847-.524-1.207-1.045-2.42-1.568-3.627-.592-1.37-3.652-.228-3.073 1.117.466 1.078.934 2.16 1.402 3.235-13.026 2.916-26.04 5.858-39.104 8.606-1.25-4.323-3.144-8.42-6.09-11.935-.612-.724-3.352.784-3.073 1.12 2.84 3.385 4.703 7.318 5.956 11.473-7.6 1.574-15.222 3.095-22.87 4.48-6.907 1.25-13.824 2.436-20.743 3.623-2.14-15.738-4.208-31.492-6.245-47.244 2.764-.69 5.536-1.365 8.26-2.245 1.868-.604 1.316-2.055-.527-1.46-2.63.853-5.283 1.524-7.928 2.2-1.984-15.346-3.955-30.7-5.954-46.044 4.395-1.47 8.8-2.907 13.252-4.216 1.957-.577 1.13-2.734-.79-2.168-4.284 1.262-8.53 2.64-12.767 4.054-2.622-20.063-5.322-40.114-8.206-60.14 3.97-1.794 8.163-3.225 12.03-5.1 2.004-.974.014-1.596-1.274-.97-3.54 1.716-7.308 3.11-10.96 4.692-2.26-15.664-4.62-31.312-7.18-46.932M1631.398 232.287c-.022.062-.053.128-.076.19-.262-.81-.51-1.628-.827-2.43-.148-.377-.454-.58-.82-.656 1.655-1.32 2.41.89 1.723 2.897m7.628 12c-2.948-.297-4.948-1.77-5.9-3.98-.173-1.135-.368-2.264-.607-3.386 0-.328-.014-.653.024-.994.354-3.51 3.104-5.493 2.203-9.273-.07-.103-.165-.148-.29-.148-5.404-.55-8.088 3.886-11.154 7.76-.56.71 2.362.05 2.816-.52.51-.647 1.012-1.302 1.52-1.95.688 1.846 1.22 3.718 1.643 5.613-.034.346-.036.698.044 1.04.16.676.328 1.268.51 1.83 1.12 6.742 1.117 13.695 1.64 20.512.135 1.71 3.294 1.003 3.18-.487-.397-5.1-.488-10.278-.96-15.392.785.328 1.71.588 2.836.784 6.273 1.1 11.83-.39 17.653 3.3 7.97 5.052-11.962 12.79-14.592 13.466-1.21.312-2.694 1.707-.51 1.14 3.284-.842 25.474-8.903 18.852-15.098-5.082-4.76-12.57-3.583-18.91-4.215M721.876 72.243c-2.913 9.336-20.708 3.727-17.448-5.424.722 0 1.435-.196 1.686-.667 2.46-4.568 6.745-6.995 11.598-4.275 3.67 2.05 5.402 6.394 4.164 10.365m3.47.616c2.357-5.835-2.127-11.34-7.294-13.455-5.75-2.35-11.554.213-14.742 5.097-.808-.063-1.676.125-1.956.66-6.545 12.527 19.14 19.728 23.99 7.697M689.38 164.09c2.242 1.633 5.64 3.122 8.37 1.686 3.446-1.804 2.848-4.33-.583-5.47-1.44-.482-4.11 1.07-1.865 1.818-.433 1.955-1.27 2.314-2.525 1.09-1.226-.727-2.246-1.977-3.02-3.15-1.863-2.808-1.07-6.734-.292-9.736.064-.253.143-.504.215-.757.33-.064.66-.142.99-.205 2.073-.39 1.223-2.013-.267-2.166 1.197-3.666 2.56-7.21 2.405-11.204-.028-.81-1.128-1.126-1.783-1.113-2.4.037-3.733.532-5.084 2.58-.73 1.12 1.93 1.682 3.098.987-.403 2.99-1.53 6.222-2.484 9.442-4.408.96-8.776 2.104-13.21 2.946-2.355.444-.926 2.488.92 2.14 3.897-.737 7.736-1.712 11.598-2.594-1.282 5.156-1.434 10.1 3.517 13.707M565.208 102.355c3.697.384 6.36-2.29 8.71-4.737 3.164-3.292 5.957-5.412 10.308-6.866 1.984-.663 6.664-3.19 4.686-6.106-3.684-5.437-14.33-5.065-15.352 2.342-.172 1.266 3.425 1.45 3.616.075.747-5.428 10.08-4.815 8.054.128-.742 1.805-4.22 2.283-5.878 2.843-3.488 1.176-6.05 3.993-8.532 6.544-1.655 1.7-3.806 4.73-6.62 3.335-2.77-1.366-4.112-4.36-4.562-7.234-.476-3.077.385-6.73 2.406-9.28-.364 1.445 3.136 1.717 3.472.554l1.12-3.864c.37-1.273-1.867-1.398-2.63-1.145-7.18 2.357-9.703 10.946-6.895 17.56 1.33 3.137 4.775 5.5 8.098 5.852M534.85 78.962c-.177-1.39-3.33-1.417-3.613-.075-1.258 5.918-.91 11.846-.998 17.86-.015.952 1.733 1.256 2.804.903 1.112 15.353 1.59 30.798 3.206 46.046-.28-.033-.543-.053-.705-.037-7.417.837-14.79 3.388-22.303 2.976-2.113-.113-2.106.95-.022 1.063 7.84.433 15.43-1.946 23.143-2.947.322 2.95.684 5.894 1.11 8.826 3.182 21.942 8.458 45.127 6.968 67.37-.088 1.332 3.523 1.45 3.614.075 1.49-22.243-3.792-45.42-6.97-67.37-3.56-24.625-3.093-49.94-6.235-74.693M633.267 92.413c2.353-.376 1.083-2.865-.907-2.55-2.676.43-6.32 1.145-8.315-1.247-1.57-1.882-.792-5.452-.352-7.57.815-3.897 2.872-7.362 3.61-11.285.59-3.1-1.266-5.94-4.37-6.628-4.11-.906-7.73 2.433-10.358 5.13-1.417 1.455 1.957 2.552 3.09 1.386 1.585-1.632 6.48-6.36 8.025-2.142.715 1.95-.64 4.697-1.332 6.488-1.353 3.502-2.55 6.894-2.78 10.683-.5 8.07 7.647 8.698 13.69 7.736M605.593 79.64c2.112.07 2.13-1.11.023-1.182-4.59-.15-5.397 2.06-3.68 6.038.854 1.973 2.21 3.836 2.735 5.94 1.208 4.843-6.567 3.39-9.06 3.267-2.12-.106-2.124 1.076-.026 1.182 3.8.188 10.503 1.795 12.426-2.7.877-2.04-.774-4.288-1.66-6.023-.457-.9-3.48-6.612-.757-6.522" fill-opacity=".2" fill="#45555F"/>
    <path d="M500.582 136.915c-1.1.047-2.877 1.266-.95 1.826l2.573.748c.863.25 2.308-.24 2.636-.797 7.445-.365 15.172-.593 22.04 2.377 1.33.576 4.032-.728 1.856-1.672-8.795-3.8-18.826-2.864-28.154-2.48M588.04 159.792c-.276-1.04-3.106-1.004-3.488-.078-2.6 6.325-.637 13.648-5.42 19.1-1.145 1.304 2.316 1.908 3.1 1.02 3.027-3.455 3.524-7.326 4.01-11.31 1.523 9.45 1.965 19.07 4.404 28.376.304 1.163 3.88 1.028 3.497-.43-3.16-12.05-2.95-24.628-6.104-36.678M639.72 87.538c.967-.553 1.86-1.198 2.747-1.848 2.39 2.764 5.065 5.287 8.2 7.514 1.058.75 4.317-.157 2.59-1.386-3.29-2.332-6.05-5.027-8.476-8.007 2.72-2.407 5.064-5.21 6.965-8.375.59-.985-2.906-1.44-3.478-.494-1.473 2.462-3.187 4.713-5.157 6.71-1.807-2.47-3.437-5.096-4.98-7.856-.65-1.18-4.206-.813-3.49.466 1.877 3.37 3.9 6.52 6.183 9.436-1.31 1.09-2.69 2.113-4.202 2.985-1.176.677 2.232 1.358 3.1.858M721.462 156.537c4.545-2.7 7.48-6.487 10.11-10.595 2.395 2.238 4.914 4.348 7.707 6.183.75.492 4.132.066 3.132-.593-3.473-2.28-6.513-5-9.423-7.864 1.34-2.2 2.65-4.45 4.127-6.656 1.143-1.707-2.202-2.688-3.095-1.353-1.224 1.834-2.335 3.72-3.447 5.59-2.573-2.64-5.102-5.332-7.8-7.877-.774-.735-3.947-.16-3.488.272 3.415 3.226 6.563 6.675 9.865 9.96-2.652 4.303-5.566 8.314-10.208 11.072-1.904 1.132 1.13 2.686 2.518 1.86M768.462 175.972c.415 1.364 3.988 1.098 3.497-.522-2.977-9.758-1.95-21.026-2.07-31.12-.136-11.842-1.065-23.67-2.194-35.454-2.238-23.448-2.076-46.916-6.14-70.202-.27-1.54-3.86-1.483-3.612-.076 4.237 24.284 4.098 48.837 6.438 73.302 1.137 11.853 1.793 23.743 1.932 35.646.112 9.345-.606 19.397 2.148 28.426M705.86 179.7c-.307 1.635-.848 6.528-3.14 3.908-2.17-2.48-2.493-6.66-2.58-9.815-.113-3.88 3.034-7.038 6.81-9.602.007.16.005.314.016.473.21 5.012-.198 10.11-1.106 15.036m7.8-21.684c-1.136.63-2.294 1.25-3.442 1.89-.615-5.804-1.895-7.75-8.11-7.918.97-4.04 4.84-7.175 9.542-6.537 1.436.197 3.443-.784.984-1.12-5.907-.808-13.23 1.508-14.3 8.208-.09.544 1.53.635 1.79.632 6.39-.14 6.725 4.03 6.788 8.633-6.377 3.86-11.5 8.56-9.774 17.093.594 2.942 5.737 11.175 9.745 6.822 4.804-5.212 4.067-16.47 3.576-23.037-.015-.215-.032-.405-.047-.615 2.36-1.332 4.67-2.45 6.358-3.386.957-.53-2.355-1.08-3.11-.664M472.676 184.45c-2.37-10.7-3.62-21.438-5.57-32.27-1.38-7.68-1.436-16.34-5.784-23.003 5.186-6.287 14.86-2.908 19.713 2.552 5.487 6.17 7.523 15.694 8.513 23.59.952 7.627.604 15.612-2.795 22.607-2.652 5.456-8.49 7.09-14.077 6.522m-5.263-8.506c.454 2.577.95 5.15 1.5 7.726-3.785-1.35-6.098-4.183-1.5-7.726m26.024-16.858c-.717-13.12-4.87-28.965-17.967-34.66-6.633-2.884-11.924-1.114-15.65 2.778-.135-.16-.235-.34-.375-.5-.54-.588-3.4-1.035-3.557.116-.31 2.294-.246 4.242.02 6.362-1.53 3.474-2.324 7.42-2.304 11.12.006 1.4 3.62 1.452 3.614.076-.016-2.917.283-5.634.987-8.322.878-.023 1.7-.276 1.628-.692-.17-1.015-.292-1.954-.386-2.882 2.972 6.587 3.14 14.594 4.396 21.554 1.252 6.972 2.204 13.89 3.38 20.79-.807-.36-2.234-.473-2.813-.032-7.37 5.562-1.372 9.38 4.967 10.987.41 1.796.845 3.587 1.34 5.382.307 1.122 3.815.81 3.61.072-.43-1.582-.83-3.164-1.205-4.75.944.11 1.837.17 2.612.163 15.038-.135 18.38-15.19 17.703-27.56M1333.997 406.28c-.963-1.568-4.92-.764-3.863.954 2.786 4.515 3.81 9.217 4.376 14.425.212 1.945 4.25 1.723 4.044-.193-.59-5.446-1.638-10.46-4.557-15.188M1318.206 494.01c-2.517 9.302-11.413 4.15-13.272-2.85-1.394-5.26 1.03-11.355 3.13-16.01 2.765-6.13 6.903-12.426 11.802-17.775.552 12.383 1.53 24.85-1.66 36.634m7.562-45.443c-.775.533-1.536 1.147-2.305 1.736-.042-6.038.22-12.032 1.257-17.78 1.936-2.904 2.818-6.89 2.92-10.353.028-.88-3.674-.744-3.975.014-.027.06-.04.12-.066.18l-.005-.003c0 .004.004.01.002.015-1.35 3.414-2.248 6.91-2.862 10.452-1.53 2.183-3.783 3.06-7.03.36-3.872-3.218-.508-11.83.985-15.185.388-.872-3.51-1.077-3.917-.16-3.252 7.302-4.842 17.237 5.328 18.66 1.552.215 2.922.077 4.127-.33-.694 5.68-.715 11.468-.522 17.296-7.576 6.948-14.1 16.336-17.225 25.48-2.86 8.365-1.924 23.66 10.678 22.827 10.772-.71 10.724-14.772 10.97-22.95.238-8.025-.403-16.572-.61-25.094 1.86-1.72 3.785-3.312 5.774-4.675 1.017-.693-2.74-1.03-3.524-.488M1480.222 419.71c-7.887-.012-15.478 1.59-23.216 2.92-2.73.473-.51 1.633 1.14 1.35 6.99-1.203 13.942-2.83 21.07-2.817 1.635.003 3.786-1.447 1.006-1.452M1630.54 401.412c-21.827 5.506-43.835 10.17-65.896 14.637-18.43 3.733-37.874 2.216-55.852 8.065-2.528.824-.887 3.16 1.194 2.482 17.922-5.826 37.44-4.35 55.858-8.065 22.06-4.45 44.07-9.13 65.893-14.634 2.6-.654.9-3.01-1.198-2.486M1550.92 385.04c2.924-8.512 4.2-17.45 6.735-26.052 2.147 4.952 2.272 10.243 3.985 15.584 2.662 8.316 4.088 16.71 5.072 25.364.205 1.826 4.248 1.592 4.044-.192-1.1-9.638-3.55-18.53-5.66-27.926-1.502-6.696-2.038-12.64-6.254-18.304-.77-1.033-3.24-.717-3.677.497-3.6 9.927-4.746 20.513-8.174 30.502-.64 1.867 3.373 2.158 3.93.527M1382.17 436.675c-4.232.426-8.468.677-12.707.92-1.115-4.727-1.92-9.522-2.07-14.462-.038-1.294-4.08-1.127-4.044.19.152 4.96.962 9.773 2.08 14.52-3.274.195-6.542.41-9.805.74-2.384.24-2.338 2.203.094 1.958 3.385-.34 6.78-.564 10.177-.765 2.054 8.077 4.927 15.982 7.08 24.072.37 1.368 4.336.906 4.045-.19-2.157-8.108-5.038-16.03-7.094-24.128 4.115-.24 8.23-.487 12.334-.9 2.384-.243 2.335-2.2-.09-1.955M1340.933 404.96c-2.073.326-1.32 1.212-.077 1.5-.035-.018-.01-.006.002 0h-.002l.005.002h.007l.008.004c-.002 0-.002 0-.004-.003.177.04.36.07.548.084-.274-.014-.47-.048-.543-.08.07.045.19.143.352.342.356.427.57 1 .758 1.517.448 1.25.64 2.598.808 3.91.272 2.145.417 4.477.01 6.617-.18.97 3.795 1.116 4.046-.192.587-3.097.178-6.61-.562-9.638-.696-2.866-2.248-4.554-5.355-4.065M1418.46 432.354c-3.447-1.056-7.093.67-10.085 2.15-12.11 5.974-5.665-15.86-9.986-20.174-.785-.78-2.863-.566-3.702.005-1.443.98-1.92 1.342-2.367 2.994-.16.606 2.626.91 3.67.24 1.646 5.8-2.773 15.13 3.266 18.218 2.645 1.353 5.866 1.647 8.742.9 1.51-.392 6.693-3.914 8.053-2.486 2.328 2.448 2.966 7.14 2.62 10.38-.095.9 3.918.968 4.04-.192.317-2.936-.552-10.906-4.25-12.036M1446.57 455.36c.153-9.372 2.042-20.532-3.553-28.727-.683-1.002-2.89-.83-3.495.164-4.427 7.283-11.547 1.825-7.22-5.648 1.166-2.01-2.636-2.9-3.56-1.31-6.162 10.64 4.944 18.066 12.223 10.914 4.255 9.196 1.3 22.522 1.794 32.21.12 2.288.12 4.555.065 6.85-.033 1.97-.363 3.88-1 5.73-5.173 1.327-8.706-.186-10.594-4.543-5.78-9.08 3.052-18.295 8.028-25.28 1.333-1.877-2.5-2.806-3.568-1.313-6.248 8.784-13.282 16.42-8.32 27.556 2.434 5.466 10.384 11.6 16.136 7.708 6.205-4.198 2.96-18.326 3.063-24.31M1559.032 433.758c.773-.174.98-.13 1.606.367.602.473 1.025 1.266 1.432 1.898.66 1.027 4.55.406 3.878-.64-.697-1.08-1.437-2.127-2.578-2.772-1.632-.916-3.72-.846-5.49-.452-.356.083-1.863.427-1.362 1.12.467.648 1.842.628 2.514.48M1595.48 458.457c.346 1.213 4.29.668 4.047-.19-1.255-4.446-3.72-10.927-9.5-9.347-1.943.532-2.815 2.825-4.678 3.338-2.55.696-4.297 2.493-6.427.372-1.804-1.798-2.284-4.748-2.753-7.13-.227-1.187-4.23-.768-4.04.195 1.02 5.223 3.518 10.823 9.832 9.84 2.368-.365 4.423-1.352 6.576-2.294 1.388-.602 2.435-1.926 3.542-2.908-.242.214 3.11 7.09 3.4 8.125M1639.786 441.718c-4.712-.336-9.57-3.172-13.566-6.868 1.817-3.647 3.924-7.122 6.625-10.182 1.337-1.513-2.586-2.1-3.545-1.01-2.276 2.578-4.138 5.436-5.775 8.428-1.95-2.212-3.57-4.566-4.686-6.795-.676-1.352-4.647-.753-3.867.802 1.584 3.163 3.994 6.39 6.894 9.22-2.333 4.858-4.205 9.974-6.164 14.923-.642 1.625 3.37 1.85 3.932.433 1.666-4.214 3.263-8.575 5.144-12.786 4.24 3.37 9.172 5.775 14.035 6.122 2 .143 3.676-2.09.97-2.286M1610.143 537.284c-22.795 5.74-45.81 10.414-68.88 14.892-7.426 1.44-14.873 2.755-22.418 3.35-5.94.472-14.934-.508-7.67-7.046 3.71-3.33 8.417-5.7 12.85-7.862 12.566-6.128 26.49-10.445 39.672-15.128 9.472-3.365 25.663-6.483 31.164-16 .306-.525-.665-.71-.967-.77-18.406-3.413-37.255.676-55.357 4.096-11.594 2.192-23.323 3.447-34.936 5.564-4.24.775-8.463 1.64-12.69 2.496 3.047-1.196 6.09-2.392 9.136-3.58 1.882-.738-2.05-1.216-2.906-.88-5.733 2.25-11.472 4.496-17.208 6.746-1.956.77 1.89 1.138 2.507 1.013 21.07-4.354 42.304-7.22 63.426-11.19 10.633-2.005 21.286-3.718 32.12-4.107 2.656-.092 16.097-1.578 10.207 3.728-3.176 2.86-7.51 4.48-11.38 6.135-12.284 5.258-25.27 9.57-37.888 13.97-12.85 4.49-27.36 9.393-36.196 20.346-.09.138-.086.26.017.385 6.585 7.356 22.615 2.907 30.812 1.7 26.382-3.88 52.847-10.208 78.684-16.71 2.526-.638-1.016-1.417-2.1-1.146M1536.67 467.52c2.116 1.874 3.295 7.332.107 2.938-1.078-1.488-1.628-2.9-1.782-4.23.593.427 1.18.85 1.676 1.29m30.44-8.617c1.19-7.406-9.198-7.708-14.072-7.27-6.57.588-14.984 3.066-19.42 8.53-3.49-5.07-5.688-13.788 2.913-12.278 2.028.357 3.618-1.82.966-2.287-6.59-1.16-12.338 1.016-10.656 8.63.76 3.417 2.68 6.524 4.86 9.212-2.14 6.4 8.19 16.353 10.495 10.198 1.952-5.214-2.19-7.723-6.172-10.787-.12-.094-.24-.217-.362-.324 4.513-9.037 28.797-12.11 27.407-3.432-.233 1.455 3.78 1.45 4.044-.19M1478.064 431.927c-5.36.64-10.59 2.04-15.95 2.68-2.775.326-.426 1.324 1.132 1.14 5.36-.64 10.592-2.04 15.95-2.68 2.775-.33.43-1.325-1.132-1.14M1606.82 442.945c2.363-1.21-.324-3.422-2.164-2.476-.996.51-1.866.263-2.592-.384 1.33-3.91 5.038-7.487 3.685-11.894-.792-2.58-3.99-2.82-6.155-3.188-3.612-.616-4.987 2.03-5.648 5.04-.463 2.11 3.526 2.46 3.937.61.142-.647.287-1.283.463-1.92.292-1.064.622-.715 1.613-.637 1.174.093 1.93.51 2.038 1.718.196 2.145-1.316 4.588-2.263 6.406-.596 1.138-2.587 3.766-1.577 5.046 2.05 2.598 5.78 3.163 8.662 1.68M1897.3 519.156c2.27-1.035.015-1.203-1.243-.63-5.656 2.575-10.65 5.935-13.658 11.525-.864 1.607-1.345 3.28-1.558 4.976-.506-1.158-1.02-2.313-1.457-3.51-.267-.727-3.662.506-3.404 1.22 2.24 6.082 5.392 11.65 8.708 17.18.405.718.82 1.417 1.25 2.09.494.777 3.703-.725 3.402-1.22-7.866-12.377-6.276-25.145 7.96-31.63" fill-opacity=".2" fill="#45555F"/>
    <path d="M2111.402 464.51c-2.423 20.383-6.343 40.648-20.037 56.692-13.562 15.888-36.014 21.29-55.795 23.886-47.617 6.26-97.945 1.006-144.748-8.4-.943-.193-3.886 1.24-2.24 2.156l.264.09c-1.86 1.474 1.154 2.025 2.327 1.097l.652-.518c49.5 9.75 103.52 15.126 153.47 6.285 17.49-3.098 34.52-9.704 47.338-22.3 15.715-15.442 19.752-38.73 22.243-59.63.183-1.543-3.306-.722-3.474.644M1803.175 475.7c-6.206 1.503-12.4 2.9-18.523 4.434-2.655-13.886-5.095-27.813-7.682-41.715-3.825-20.558-10.17-40.944-12.378-61.752 10.565 14.854 21.318 29.574 32.318 44.097-2.778 1.084-5.556 2.17-8.35 3.21-4.306 1.604-7.663 2.616-11.1 5.665-1.464 1.3 2.03.953 2.81.262 4.26-3.782 11.62-5.875 17.594-7.89 12.58 16.583 25.475 32.927 38.718 48.988-11.227-.362-22.766 2.125-33.407 4.7m50.777-1.328c-4.067-1.61-8.28-2.573-12.563-3.05-13.716-16.56-27.053-33.422-40.058-50.545 7.145-2.734 14.417-5.144 21.64-7.647 13.868-4.807 27.663-9.322 41.746-13.476 30.296-8.933 60.74-17.424 91.792-23.334 28.924-5.507 58.956-7.936 88.4-6.946 14.05.473 29.135 1.892 42.297 7.056 10.588 4.154 21.14 6.043 32.116 2.76-.002.198-.002.4-.04.596-.94 4.695-9.7 7.158-13.378 9.283-2.017 1.166 1.205 1.126 2.147.582 4.638-2.68 13.547-5.193 14.766-11.284.975-4.862-9.252-10.14-13.132-10.157-.916-.004-3.927 1.837-2.053 1.846 3.118.012 9.744 3.693 11.343 7.49-15.9 4.823-31.73-4.75-47.168-7.62-13.537-2.516-27.43-2.857-41.16-2.7-29.34.332-58.406 3.89-87.094 9.9-30.08 6.306-59.6 15.074-89.05 23.788-15.14 4.484-29.918 9.837-44.83 15.045-3.146 1.1-6.258 2.28-9.36 3.486-13.12-17.312-25.91-34.874-38.417-52.644-.843-1.196-4.078.325-3.072 1.755 1.408 1.997 2.835 3.98 4.25 5.973-1.024-.005-2.214.645-2.122 1.594 1.903 19.206 7.652 37.87 11.333 56.782 3.12 16.01 5.865 32.09 8.91 48.12-6.795 1.782-13.482 3.813-19.975 6.422-.848.07-2.177.485-2.56 1.056-4.76 2.044-9.406 4.434-13.906 7.316-1.973 1.258 1.213 1.173 2.145.577 3.783-2.424 7.654-4.425 11.593-6.153-.135 2.913-.935 5.762-.794 8.704.025.547 3.45-.19 3.4-1.218-.143-3.008.702-5.923.805-8.908 6.388-2.524 12.947-4.402 19.62-6.115.896 4.688 1.81 9.373 2.776 14.05.337 1.624 3.753.47 3.404-1.218-.944-4.563-1.85-9.135-2.727-13.707 4.442-1.11 8.93-2.187 13.446-3.374 12.954-3.41 26.52-6.376 39.974-5.287 7.675 9.27 15.448 18.462 23.373 27.53.978 1.122 4.202-.462 3.073-1.754-7.256-8.303-14.376-16.717-21.423-25.193 14.442 2.454 24.77 12.92 22.898 27.946-2.065 16.583-15.784 28.445-28.94 36.943-13.475 8.7-28.7 14.148-43.835 19.16-11.978 3.966-24.33 7.07-36.87 8.116l-.345-4.185c-.08-.964-3.507-.052-3.402 1.22.09 1.076.177 2.148.266 3.223-4.195.22-8.405.21-12.634-.113-15.18-1.163-36.214-9.236-35.803-27.38.42-18.753 28.108-33.354 44.148-28.673.93.27 3.992-1.373 2.687-1.753-26.578-7.747-69.883 28.445-39.363 51.007 11.46 8.467 26.715 9.86 41.115 8.735.044.534.088 1.07.13 1.605.082.96 3.508.05 3.403-1.22-.02-.235-.04-.472-.058-.708 3.943-.418 7.798-.992 11.452-1.648 20.09-3.593 40.46-10.854 58.764-19.81 14.436-7.065 30.837-17.305 38.205-32.21 7.613-15.4 6.51-32.588-11.288-39.64" fill-opacity=".2" fill="#45555F"/>
    <path d="M1758.91 534.003c.04.763 3.467-.054 3.405-1.22-.216-3.94.92-7.825.702-11.774-.04-.765-3.464.054-3.402 1.218.216 3.943-.92 7.827-.705 11.775M1758.58 448.65c.23 2.774.457 5.543.685 8.314.06.727 3.494-.108 3.403-1.217l-.685-8.314c-.06-.724-3.493.112-3.403 1.218M1757.414 373.24c-19.47 45.195-29.006 93.792-47.103 139.48-.248.626 3.016.08 3.39-.87 16.774-42.35 26.21-87.196 43-129.514 3.525 5.476 2.753 13.237 1.37 19.277-.23.996 3.17.238 3.41-.807 1.432-6.255 2.257-14.624-1.647-20.162-.404-.573-1.672-.273-2.553.203 1.14-2.84 2.31-5.666 3.523-8.477.255-.592-2.982-.073-3.39.87M1063.356 463.32c1.412-5.472 6.28-16.037.09-20.164-.876-.585-4.056 1.153-3.426 1.575 5.862 3.91 1.038 14.304-.31 19.536-.203.777 3.39.053 3.646-.947M1062.516 417.947c1.46-.118 3.794-2.533 1.26-2.327-1.458.118-3.792 2.53-1.26 2.327M1113.065 457.785c5.085 3.55 11.26 5.482 17.29 6.615.916.173 4.123-1.525 2.944-1.75-6.668-1.252-12.723-3.62-18.182-7.463 6.367-8.328 11.913-17.837 12.665-20.423.186-.63-.832-.763-1.207-.72-2.57.275-3.895 1.053-5.61 3.014-1.152 1.32.97 1.328 2.276.814-2.05 4.927-5.803 9.658-8.735 13.827-.21.302-.732 1.02-1.432 1.958-.036-.03-.074-.053-.11-.083-3.893-3.116-8.727-6.474-13.5-8.026-.74-.24-3.387.517-3.306 1.528.096 1.193.192 2.387.29 3.58.053.688 3.757-.177 3.666-1.306l-.042-.52c3.86 1.992 7.494 4.91 10.954 7.493-3.943 5.002-9.915 11.803-11.4 9.295-.575-.966-2.87-.246-3.537.613-.45-5.58-.45-22.142-8.175-22.92-3.826-.386-5.462 2.058-7.48 4.952-4.293 6.16-4.864-1.78-4.84-2.896.03-1.406.34-2.833.58-4.21.45-2.544 1.082-5.037 1.048-7.634-.024-1.93-3.788-1.063-3.77.607.068 5.177-5.762 20.57 5.058 18.825 4.59-.74 7.628-10.94 10.856-3.075 2.15 5.25 2.5 11.378 2.96 16.985.137 1.685 2.96 1.228 3.624.004.01.018-.003.038.007.058 3.144 5.284 10.34-.825 17.108-9.145M1076.985 487.707l.265 3.273c.004.053.048.076.07.115 2.26 21.52 8.082 50.174-11.73 64.65-15.418 11.265-38.888 10.186-56.86 8.524-7.452-.693-15.71-2.79-23.462-2.275 1.117-6.41 4.956-12.5 11.993-18.102 2-1.593-1.21-2.468-2.575-1.38-5.773 4.6-10.44 9.683-12.868 16.43-.324-.612-.627-1.232-.97-1.834-.856-1.514-4.466-.104-3.668 1.306.843 1.49 1.604 3.007 2.337 4.535-.647.185-1.288.395-1.922.635-2.162.823-1.565 2.558.62 1.727.692-.264 1.41-.414 2.12-.59.028.062.058.12.086.184-.78 8.742 4.387 17.38 9.276 24.13.84 1.154 4.087-.133 3.49-1.598-2.937-7.236-5.213-14.697-8.24-21.858.01-.496.01-.992.05-1.48 6.452-.15 13.264 1.95 19.423 2.363 8.298.553 16.586 1.002 24.904.768 13.984-.392 29.082-3.665 40.546-12.042 20.476-14.96 12.615-47.674 10.78-68.79-.093-1.09-3.777-.086-3.665 1.31M1031.986 389.155c.01.472 3.69-.244 3.667-1.307-.403-17.744-35.097-12.24-45.215-8.918-20.692 6.793-45.456 21.017-49.414 44.45-.122.737 3.48-.065 3.636-.98 3.484-20.627 23.398-33.81 41.55-40.848 9.295-3.603 45.357-10.663 45.776 7.603M847.664 512.708c-3.62-5.6-6.503-12.674-8.293-20.268 10.252-1.417 20.496-2.93 30.746-4.316 3.12-.42 6.24-.858 9.36-1.295.055.864.098 1.728.16 2.592 1.045 15.29 1.952 30.58 2.863 45.876-13.43-1.56-26.247-9.313-34.836-22.59m71.16-67.97c12.762 6.794 18.356 18.462 19.065 31.047-18.11 3.74-36.398 6.594-54.737 9.18-.983-14.633-1.553-29.292-1.973-43.95 12.832-2.953 26.14-2.4 37.643 3.723m5.265 72.445c-10.4 12.832-24.125 18.723-37.593 18.398-.84-14.4-1.71-28.798-2.836-43.174-.157-2.03-.278-4.065-.417-6.097 18.33-2.596 36.603-5.52 54.697-9.296.447 14.27-5.245 29.55-13.852 40.17m-36.88 88.863c.154 1.9 3.892.97 3.764-.627-1.826-22.623-3.053-45.296-4.368-67.954 12.788-.522 25.645-5.803 35.458-15.215 12.16-11.657 19.7-29.538 19.207-45.96 11.31-2.43 22.552-5.18 33.685-8.46 1.41-.42 3.196-2.116.614-1.357-11.353 3.346-22.82 6.14-34.352 8.594-.845-15.375-8.873-29.288-26.998-35.325-10.317-3.44-21.846-3.064-33.087-.272-.02-.757-.047-1.514-.07-2.27-.268-9.755-.45-19.51-.626-29.268-.147-7.96-.905-17.353 1.475-25.015.626-2.02-3.127-1.588-3.596-.078-2.087 6.724-1.457 13.477-1.302 20.427.202 9.022-.102 18.12.105 27.177.074 3.35.172 6.7.265 10.05-14.385 4.29-28.016 12.377-37.666 21.518-.75.71 2.72.06 3.37-.56 9.077-8.598 21.34-15.77 34.337-19.475.417 14.513 1.035 29.02 1.968 43.513-1.337.184-2.67.378-4.007.562-12.06 1.652-24.167 3.65-36.283 5.265-4.57-20.818-.794-45.18 19.016-53.948 2.454-1.09.02-1.358-1.365-.745-21.453 9.5-25.943 33.474-21.2 55.16-4.006.505-8.01.977-12.018 1.35-16.757 1.568-33.1 6.015-49.872 7.584-.74.068-4.128 1.833-2.327 1.664 16.774-1.57 33.15-5.63 49.868-7.586 4.87-.57 9.738-1.207 14.597-1.865 2.375 10.117 6.74 19.666 12.317 26.928 8.874 11.556 21.49 17.12 34.507 17.62 1.362 22.86 2.738 45.723 4.582 68.567M708.333 422.502c-.624-1.332-3.568-.26-3.698 1.01-.618 6.1.44 12.143 1.303 18.174 1.434 10.027-.847 19.846-.433 29.887.074 1.698 3.79.675 3.733-.716-.358-8.593 1.295-17.05.935-25.644-.167-4.057-.894-8.035-1.416-12.028 6.94 16.843 11.842 34.41 15.918 52.18.324 1.407 4.017.204 3.67-1.31-4.844-21.09-10.81-41.912-20.012-61.553" fill-opacity=".2" fill="#45555F"/>
    <path d="M878.138 372.918c-7.1 1.49-12.85 9.61-17.2 14.723-1.474 1.727 2.216 1.58 3.11.53 3.452-4.056 6.9-8.464 11.356-11.467 6.087-4.102 9.165 4.596 12.142 8.146.904 1.078 4.415-.52 3.34-1.808-3.6-4.293-6.04-11.53-12.748-10.124M718.514 513.963c-28.473 7.854-45.043-24.287-49.078-47.096-1.458-8.23-1.487-16.68.047-24.856 1.005-.077 2.43-.593 2.715-1.304 5.424-13.532 12.443-29.666 25.05-35.662 2.956.11 6.083 1.25 9.345 3.78.988.764 4.374-.934 3.378-1.708-2.414-1.872-4.76-3.157-7.03-3.964 4.288-.863 9.128-.663 14.64.985 15.247 4.55 23.898 20.255 29.004 34.153 10.288 27.99 4.876 66.584-28.07 75.673m-46.752-80.685c3.137-9.185 10.055-22.732 19.29-26.946-7.916 5.874-13.85 15.102-17.842 23.802-.602 1.31-1.15 2.645-1.7 3.974.09-.276.158-.557.252-.83m78.488 3.705c-6.073-17.964-18.63-34.463-38.623-36.6-4.81-.517-9.21.205-13.223 1.793-20.358-1.528-33.607 36.442-33.736 53.11-.225 28.68 17.522 66.52 51.322 61.106 37.63-6.028 44.482-49.19 34.26-79.41M944.877 428.996c12.52.447 25.316-8.207 36.013-13.638 2.318-1.18.025-2.645-1.728-1.756-10.45 5.308-21.12 12.085-33.105 12.852-12.185.782-12.074-17.446-17.62-24.823-.885-1.18-4.393.42-3.328 1.84 7.274 9.684 4.592 24.983 19.767 25.526M1037.985 470.17c-1.04-.02-4.247 2.01-2.195 2.045 8.336.146 20.106-4.825 15.476-15.085-2.534-5.604-11.15-6.983-15.69-10.263-10.004-7.222 6.317-12.778 11.43-15.508 2.33-1.245.012-2-1.52-1.18-4.265 2.275-18.125 5.813-16.544 13.108.907 4.18 4.337 6.39 8.035 8.15 2.55 1.213 5.156 2.304 7.663 3.602 1.787 1.39 3.042 3.12 3.767 5.188 2.803 6.21-5.752 10.022-10.422 9.94M974.73 481.762c-.748.708 2.72.057 3.374-.557 5.254-4.945 5.172-8.91 2.897-15.432-1.014-2.905-4.464-5.106-6.663-7.228-1.582-1.523-3.49-3.81-5.77-4.206-.89-.154-4.07 1.508-2.965 1.7 2.007.347 3.92 2.758 5.307 4.068 1.998 1.89 5.506 4.305 6.423 6.972 2.102 6.107 2.47 9.91-2.602 14.682M290.568 171.507c-1.77 1.185 1.042 1.52 2.055.838 6.263-4.196 18.644.475 17.465 8.882-.785 5.635-5.648 10.988-8.732 15.552-.814 1.2 2.353.736 2.95-.147 3.298-4.88 12.778-15.455 7.985-21.91-4.866-6.54-15.237-7.562-21.722-3.216M305.972 236.41c-3.348-1.6-6.174-3.487-8.673-5.645 3.577-5.85 6.14-12.775 8.448-17.57.694-1.437-2.473-.946-2.976.088-2.07 4.298-4.005 8.656-6.228 12.88-.416.792-.88 1.68-1.377 2.6-3.324-3.333-6.09-7.206-8.81-11.642-.746-1.21-3.638.213-2.76 1.642 3.033 4.94 6.14 9.18 9.972 12.76-2.383 3.864-5.502 7.625-9.543 8.244-1.624.25-2.365 2.3-.21 1.973 4.908-.75 8.702-4.106 11.795-8.43 2.376 1.935 5.01 3.667 8.096 5.137 1.268.603 3.875-1.266 2.264-2.038M77.1 380.724c-2.86.38-4.965 2.626-7.305 4.086-.228.144-1.043.75-.316.85.695.093 1.58-.23 2.16-.597.934-.58 1.836-1.2 2.72-1.854.362-.266.72-.535 1.083-.798.14-.107.284-.202.433-.294.03-.022.022-.016.047-.03.666-.105 1.505-.42 1.962-.92.493-.54-.52-.482-.786-.444M41.25 412.58c-.954-.824-3.84.645-2.788 1.562 14.938 12.963 27.635 32.892 16.612 52.33-.792 1.395 2.402.992 2.99-.05 11.27-19.872-1.43-40.493-16.813-53.84M21.988 401.704c.69-.82 1.697-2.436 2.847-2.602.667-.09 1.6-.614 1.636-1.38.045-.796-.94-.918-1.517-.84-2.473.353-4.14 2.4-5.65 4.198-.474.56-.165 1.255.512 1.412.792.187 1.663-.185 2.173-.788M49.103 392.086c-.028.008-.014.006-.026.006l-.012.002c.015-.002.024-.008.038-.008m-1.86.974c-.42.61.464.73.874.692 1.492-.16 3.553-1.096 3.487-2.842-.037-1.135-3.12-.183-3.087.724.006.186-.006.43-.075.617-.475.166-.94.422-1.2.81M19.118 441.803c-1.8.214-3.51.647-5.24 1.193-2.33.727-5.232 2.282-7.695 1.53-.884-.268-3.14 1.232-2.878 1.314 4.606 1.407 9.39-2.09 13.867-2.623.62-.074 3.448-1.592 1.946-1.414M.07 461.64c-.794-.698-3.678.705-2.82 1.464 1.798 1.59 1.144 3.632.378 5.626-.262.68 1.14.563 1.398.507.68-.153 1.442-.51 1.706-1.19.892-2.324 1.383-4.598-.66-6.408" fill-opacity=".2" fill="#45555F"/>
    <path d="M35.205 450.234c-1.643-.555-7.196-.72-7.768-2.393-1.58-4.57 3.05-9.365 2.176-13.935-.952-4.968-9.463.582-11.242 1.648-1.86 1.11.02 2.517 1.512 1.624.834-.5 6.02-3.985 6.59-2.538.464 1.2-.364 3.186-.67 4.326-.794 2.9-2.212 6.387-1.558 9.44.722 3.37 5.605 3.04 8.378 3.754 1.016.26 8.554 3.632 4.146 5.25-2.464.902-5.384 1.02-7.98 1.25-1.757.16-2.26 2.406-.122 2.216 2.934-.258 14.448-.64 12.228-6.428-.948-2.478-3.34-3.418-5.69-4.214M182.395 107.89c.703-.09 1.572-.397 2.027-.97 1.22-1.536 1.378-3.126 1.213-5.016-.056-.69-3.16.09-3.07 1.117.136 1.61.027 2.966-1.01 4.27-.464.586.498.645.84.6M-3.387 68.347c7.405 3.774 14.852-5.862 17.16-11.57 3.62-8.948 2.988-19.176 3.896-28.602.67-6.973 5.304-20.003-1.28-25.41-.622-.51-1.882-.062-2.42.367C5.67 9.798 3.92 1.43.704-4.774c-.552-1.063-3.17.012-3.074 1.116l.39 4.51c.045.508.936.493 1.75.195 1.47 3.2 3.322 6.438 6.373 7.292 2.808.784 5.956-1.376 8.31-3.23 3.62 4.22 1.756 12.046 1.065 16.986-.768 5.435-1.194 10.792-1.587 16.26-.532 7.427-1.188 15.104-4.54 21.867-.874 1.743-2.123 3.148-3.745 4.22-5.298 3.87-6.962 2.464-11.24-.7-6.787-5.02.98-12.262 4.452-16.184 1.218-1.374-1.89-1.037-2.56-.276-6.905 7.802-11.622 14.982.316 21.063M177.915 99.867c.7-6.717.833-13.5.36-20.236-.362-5.07-.995-11.694-5.323-15.02-.752-.57-2.025-.015-2.497.653-3.91 5.485-5.06 12.825-6.173 19.33-.277 1.624 2.927 1.007 3.182-.482.894-5.24 1.874-11.292 4.52-16.104 3.14 3.905 3.083 10.938 3.31 15.405.282 5.632.024 11.333-.557 16.94-.175 1.67 3.018 1.034 3.178-.483M149.426 52.65c-1.973 10.15.12 20.282 1.12 30.423 1.267 12.84 3.904 25.275 9.267 37.068.49 1.077 3.53-.105 3.072-1.115-4.622-10.163-7.237-20.8-8.717-31.838-1.532-11.42-3.846-23.795-1.63-35.204.227-1.163-2.902-.43-3.112.666M42.9 5.887c-2.917-.29-4.257 5.544-5.113 7.077-3.26 5.84-2.756 13.33-9.102 17.142-1.846 1.107.028 2.783 1.596 1.842 7.23-4.346 7.742-12.917 11.196-19.926 1.08-2.183.704-3.417 3.42-2.427 2.67.97 4.58 3.41 6.386 5.48 2.723 3.118 4.972 6.704 8.002 9.54 1.102 1.03 3.965-.53 2.753-1.665C56.25 17.54 51.847 6.775 42.9 5.887M120.242 82.73c3.407 3.244 5.25 7.58 6.788 12.127-.576-.004-1.635.227-2.01.44-1.54.873-3.228 1.388-4.93 1.892.23-4.814.337-9.632.152-14.46m-1.3 35.85c.223-6.893.77-13.765 1.115-20.64 2.288-.734 4.667-1.268 6.785-2.47.154-.088.23-.15.32-.22 1.747 5.225 3.135 10.69 6.05 15.074.513.772 3.397-.633 3.073-1.116-5.975-8.983-5.618-22.285-14.733-29.143-.27-.204-.855-.103-1.433.12-.023-.364-.026-.72-.054-1.083-.114-1.63-3.26-.863-3.16.526.438 6.217.302 12.41 0 18.6-.736.28-1.46.594-2.15.984-1.806 1.026 1.15.553 1.82.172.093-.05.192-.09.282-.137-.342 6.615-.863 13.228-1.08 19.86-.053 1.608 3.117.88 3.163-.526M192.463 94.444c-4.358 8.795 12.4 6.893 16.245 6.564.693-.057 3.482-1.65 1.906-1.516-5.643.48-19 2.043-14.358-7.317 2.84-5.736 5.996-10.925 7.16-17.345.58-3.213-.92-9.597-5.286-9.377-4.624.233-7.594 3.165-10.537 6.513-.652.744 2.325.145 2.843-.443 2.707-3.084 8.42-4.12 9.87.267.858 2.588-.32 5.934-1.074 8.425-1.54 5.09-4.428 9.51-6.77 14.23M221.58 115.917c16.363-22.895-4.318-50.182-18.077-68.77-.624-.848-3.6.424-2.812 1.488 13.38 18.074 33.95 45.08 17.952 67.466-.81 1.134 2.345.65 2.94-.183M105.003 150.77c.686.577 3.504-.824 2.856-1.37l-1.635-1.373c-.684-.576-3.5.825-2.852 1.372l1.63 1.37M109.99 192.29l.39 4.51c.15 1.738 3.314 1.055 3.182-.47l-.39-4.512c-.15-1.74-3.315-1.057-3.183.472M95.89 126.504c-1.793 1.072-3.438 1.385-5.494 1.56-.766.07-1.563.3-2.174.792-.446.362-.364.806.273.75 3.407-.298 6.315-.98 9.278-2.75.28-.163 1.004-.79.29-.922-.718-.137-1.574.213-2.174.57M106.72 171.694c.05.585 3.152-.165 3.072-1.12-.224-2.544-.27-5.627-2.26-7.503-.607-.57-3.46.79-2.865 1.352 1.85 1.745 1.846 4.92 2.052 7.272M105.362 121.89c-.09.01-.18.022-.274.03.062-.058.135-.103.188-.165.032-.04.066-.076.097-.114 0 .086-.003.17-.01.25m3.04-2.433c-.047-.55-.54-.798-1.07-.75-.88.077-1.757.15-2.55.574-.62.33-1.098.825-1.554 1.343-.74-.098-1.61.225-2.092.79-.754.904-1.57 1.848-1.76 3.05-.215 1.366 1.282 2.19 2.303 2.63.794.338 1.887-.04 2.443-.664.37 1.39.426 2.936.542 4.254.14 1.59 3.275.79 3.155-.546-.182-2.093-.266-4.602-1.313-6.53.433-.153.847-.347 1.194-.656 1.045-.925.814-2.247.704-3.495" fill-opacity=".2" fill="#45555F"/>
    <path d="M298.523 185.112c1.2-1.247-1.9-.695-2.492-.09-9.35 9.7-29 7.577-41.575 10.19-12.58 2.615-25.19 5.082-37.798 7.567-.798-1.7-1.766-3.33-3.018-4.84-.654-.792-3.435.677-3.072 1.117 1.135 1.374 2.026 2.847 2.78 4.376-3.536.7-7.074 1.385-10.61 2.1-12.2 2.455-24.348 5.135-36.49 7.848-.523-1.206-1.045-2.42-1.567-3.626-.592-1.37-3.65-.228-3.072 1.117.465 1.08.933 2.16 1.402 3.237-13.026 2.917-26.04 5.86-39.105 8.607-1.25-4.324-3.143-8.42-6.09-11.935-.612-.727-3.352.78-3.072 1.118 2.84 3.384 4.702 7.317 5.956 11.472-7.603 1.574-15.223 3.096-22.87 4.48-6.908 1.25-13.825 2.436-20.744 3.623-2.14-15.738-4.21-31.492-6.245-47.244 2.765-.692 5.536-1.366 8.26-2.246 1.87-.603 1.317-2.054-.526-1.46-2.63.854-5.284 1.524-7.928 2.2-1.984-15.345-3.955-30.7-5.955-46.044 4.397-1.47 8.802-2.907 13.254-4.216 1.957-.576 1.13-2.734-.79-2.168-4.284 1.263-8.53 2.642-12.768 4.055-2.623-20.062-5.322-40.112-8.207-60.137 3.97-1.795 8.163-3.227 12.028-5.103 2.006-.972.016-1.594-1.272-.97-3.54 1.717-7.308 3.112-10.96 4.694-2.26-15.664-4.62-31.313-7.18-46.932-.176-1.074-3.185-.15-3.095.873.042.502.086 1.004.13 1.507.012.152.076.27.155.37 2.47 15.17 4.77 30.367 6.967 45.58-3.608 1.763-7 3.87-9.778 6.93-1.19 1.31 1.91.8 2.51.138 2.16-2.373 4.727-4.136 7.485-5.605 2.86 19.873 5.548 39.775 8.154 59.686-1.107.375-2.216.738-3.32 1.118-1.92.66-1.127 2.823.786 2.168.943-.325 1.892-.635 2.836-.955 1.996 15.272 3.96 30.552 5.93 45.825-3.41.91-6.78 1.944-10.04 3.496-2 .957-.015 1.75 1.327 1.114 2.876-1.373 5.875-2.302 8.906-3.114 2.022 15.667 4.074 31.332 6.19 46.99-12.887 2.19-25.78 4.324-38.67 6.472-1.04-4.02-2.597-7.837-5.496-11.18-.547-.63-2.284.142-2.684.623-1.72 2.073-3.076 4.15-4.176 6.632-.58 1.307 2.524.628 2.912-.252.666-1.5 1.4-2.825 2.266-4.104 1.953 2.696 3.15 5.688 4 8.814-11.707 1.965-23.412 3.952-35.085 6.086-6.34 1.157-12.676 2.323-19.013 3.492-1.19-2.192-2.59-4.245-4.48-5.923-1.118-1.003-3.977.565-2.747 1.66 1.586 1.417 2.808 3.09 3.847 4.878-10.42 1.926-20.838 3.882-31.225 5.933-6.344 1.253-12.66 2.623-18.972 4.005-.744-1.435-1.616-2.824-2.71-4.13-.646-.777-3.416.705-3.072 1.11.99 1.19 1.785 2.45 2.482 3.744-.81.177-1.624.352-2.433.53-8.842 1.956-21.047 6.83-29.854 3.26-.803-.33-3.612 1.104-2.424 1.585 5.343 2.173 10.244.913 15.796.223 6.525-.81 13.11-2.62 19.607-4.246 2.055 4.39 2.99 9.21 4.532 13.932.246.756 3.333-.315 3.074-1.114-1.5-4.604-2.433-9.298-4.382-13.6.85-.2 1.704-.398 2.55-.582 15.863-3.457 31.843-6.263 47.79-9.26.834 1.618 1.56 3.297 2.283 4.967.633 1.457 3.7.325 3.075-1.118-.647-1.493-1.297-3.002-2.024-4.474 1.75-.335 3.5-.655 5.25-1 16.11-3.13 32.285-5.92 48.474-8.624 1.15 4.837 1.603 9.947 2.748 14.78.226.963 3.326-.034 3.072-1.12-1.107-4.678-1.597-9.543-2.658-14.187 12.843-2.14 25.696-4.244 38.53-6.42.2 1.463.388 2.923.59 4.387 2.25 16.52 4.385 33.064 6.544 49.598-3.433 1.31-6.592 3.227-9.178 6.077-1.32 1.452 1.78 1.7 2.708.683 1.897-2.088 4.232-3.505 6.76-4.528 2.012 15.406 4.07 30.807 6.24 46.188-3.682.722-6.963 2.286-8.726 6.22-.324.715 2.67.19 3.085-.737 1.2-2.668 3.372-3.687 5.83-4.125.226 1.604.437 3.216.667 4.82 1.965 13.69 4.054 27.35 6.626 40.936-3.085.99-6.013 2.42-8.668 4.63-1.644 1.377 1.077 1.752 2.086.91 2.14-1.777 4.475-2.94 6.93-3.754.39 2.016.755 4.037 1.17 6.047 1.54 7.498 3.14 14.977 4.737 22.464.853 3.996 2.057 7.856 3.128 11.755-.84.154-1.71.684-1.65 1.274.363 3.694.743 6.964 3.945 9.203.878.612 3.082-.06 2.935-1.32-.766-6.626-2.578-12.966-4.696-19.283-2.362-7.044-3.21-15.04-4.728-22.315-.605-2.886-1.147-5.782-1.702-8.68 2.442-.52 4.97-.803 7.535-1.028 1.273-.11 3.145-2.222 1.016-2.04-3.026.267-6.016.63-8.9 1.28-2.578-13.673-4.692-27.41-6.69-41.19-.197-1.35-.37-2.693-.564-4.034 1.193-.053 2.39-.074 3.517-.156 1.033-.08 3.267-1.83 1.15-1.67-1.583.116-3.235.19-4.873.348-2.22-15.575-4.296-31.17-6.326-46.77 2.55-.694 5.21-1.087 7.79-1.338 1.783-.182 2.225-2.517.087-2.3-2.754.264-5.512.71-8.16 1.434-2.157-16.575-4.286-33.155-6.557-49.715-.172-1.27-.338-2.54-.51-3.808 7.642-1.303 15.274-2.632 22.9-4.03 6.997-1.28 13.965-2.67 20.93-4.098.797 3.004 1.3 6.096 1.605 9.18.05.526 3.162-.22 3.07-1.114-.288-2.928-.746-5.866-1.473-8.72 13.136-2.73 26.23-5.634 39.32-8.555 1.22 2.824 2.444 5.647 3.663 8.47.59 1.365 3.654.225 3.075-1.113-1.166-2.696-2.33-5.388-3.496-8.08 15.658-3.497 31.323-6.97 47.064-10.1 2.034 4.714 2.873 9.926 4.478 14.87.248.782 3.335-.287 3.07-1.115-1.556-4.792-2.39-9.833-4.294-14.434 16.92-3.498 34.365-8.41 51.516-9.59 10.23-.702 22.267-1.496 29.823-9.334M658.25 308.746c-.2-.92-.888-1.66-1.87-1.64-.717.016-1.583.264-2.147.71-.537.43-.743.9-1.134 1.426-.956 1.277.492 1.558 1.772 1.263 1.035.527 3.658-.486 3.38-1.76M671.754 331.992c.41.963.498 2.105.637 3.124.287 2.112.277 4.258.39 6.38.088 1.752 3.92.73 3.848-.687-.182-3.478.063-7.398-1.316-10.667-1.34-3.186-5.934-.855-7.66.505-.634.494-4.33 4.82-4.986 4.29-1.004-.817-.25-3.613-.06-4.625.582-3.117 1.673-6.295 3.07-9.145.857-1.754-3.022-1.202-3.638.05-1.448 2.948-6.56 14.09-1.97 16.07 2.867 1.242 6.44-1.768 8.25-3.592.792-.794 2.67-3.526 3.436-1.704M580.414 335.625c-.91-.2-3.952-.535-7.563-.69-.15-4.83.037-9.683-2.14-14.167-.763-1.58-4.516-.203-3.79 1.294 1.94 4.002 2.018 8.415 2.095 12.79-6.842.015-13.836.95-12.107 4.656.74 1.585 4.497.223 3.79-1.294-.05-.108-.106-.16-.157-.19.035-.007.047.003.1-.016.725-.257 1.558-.3 2.313-.385 2.028-.23 4.097-.172 6.13-.12.012.28.017.564.03.845.188 3.926 2.067 8.93-.162 12.525-1.063 1.72 2.88 1.4 3.687.094 2.07-3.35.993-7.946.522-11.625-.073-.575-.113-1.146-.16-1.722 1.796.08 3.603.233 5.31.606 1.554.338 4.45-2.09 2.104-2.6M802.372 325.173c-1.046-.63-4.368 1.143-3.52 1.653 6.827 4.075 17.032.448 19.502-7.11 1.55-4.74-6.323-6.817-9.26-7.43-4.428-.924-4.968-3.017-4.03-7.01.69-2.933 1.694-5.642 2.347-8.47l-3.58.24c-.578 3.072-1.606 6.037-2.56 9.07-.47 1.483-1.306 4.626.168 5.935 2.062 1.836 4.913 2.11 7.49 2.81 11.19 3.045 2.16 15.52-6.556 10.313M531.005 329.025c-.548-1.448-3.282-.414-3.727.63-1.926 4.48-2.384 9.325-3.656 13.996-.437 1.606 3.453.867 3.862-.642.352-1.302.64-2.62.918-3.94.025.683.045 1.363.098 2.04.368 4.74.8 9.274-.197 13.974-.354 1.666 3.536.887 3.86-.645.99-4.678.614-9.248.2-13.972-.334-3.857.034-7.763-1.358-11.44M514.35 341.073c-2.42-.277-5.06-.283-7.616.13-.062-.586-.147-1.168-.174-1.763-.126-2.483.086-5.578-2.275-7.066-.877-.555-4.036 1.225-3.563 1.522 2.367 1.494 1.962 5.143 2.08 7.566.012.27.06.53.08.796-2.833 1.08-5.308 2.85-6.82 5.67-.983 1.833 2.947 1.494 3.69.105.794-1.478 2.01-2.46 3.415-3.142.46 3.082 1.148 6.11 1.05 9.34-.015.406 3.755-.192 3.793-1.293.094-3.15-.497-6.138-.96-9.15 2.08-.267 4.24-.183 6.1.03 1.824.207 3.814-2.442 1.2-2.744M711.56 311.588c.25-1.397-3.588-.534-3.824.76-.716 4.008-3.445 7.835-5.865 11.04-.445.588-.9 1.186-1.354 1.78-.834-1.28-1.59-2.6-2.21-3.98-1.372-3.045-2.92-6.853-6.07-8.42-1.02-.507-2.666.296-3.272 1.118-.91 1.235-.777 1.014-1.08 2.586-.222 1.147 2.263.79 3.337-.088 2.125 2.36 3.316 6.2 4.514 8.78.528 1.14 1.22 2.26 2.002 3.355-1.7 1.853-3.595 3.497-5.88 4.57-2.456 1.155-.058 2.197 1.61 1.415 2.193-1.028 4.062-2.432 5.76-4.04 2.148 2.647 4.624 5.19 6.464 7.688.75 1.017 4.42-.474 3.484-1.743-2.223-3.022-4.822-5.918-7.094-8.998.588-.688 1.17-1.38 1.743-2.092 3.16-3.958 6.824-8.632 7.736-13.732M460.892 358.668c-6.282.98-22.82 2.16-17.687-8.552 2.203-4.605 5.328-8.26 6.513-13.356 2.31-9.92-13.56-3.308-15.26 2.41-.187.64 3.465.02 3.757-.96.807-2.71 6.645-7.76 7.87-2.96.506 1.98-.637 4.543-1.35 6.353-1.483 3.79-4.088 6.972-5.837 10.62-5.093 10.63 15.343 8.824 20.4 8.033.947-.144 4.114-1.98 1.594-1.588M481.994 339.77c-.58 2.996-3.14 4.97-5.376 6.817-2.84-2.905-5.56-5.958-8.385-8.792-3.045-3.06-6.605-.704-7.414 2.882-.284 1.24 3.53.426 3.808-.8.074-.137.102-.225.152-.336.417.405.817.837 1.2 1.25 1.338 1.434 2.86 2.717 4.213 4.15 1.318 1.398 2.604 2.816 3.92 4.198-1.967 2.213-4.09 4.564-7.096 4.296-1.298-.116-4.44 2.132-2.195 2.33 4.502.402 8.003-1.818 11.114-4.783 1.03 1.01 2.086 1.998 3.224 2.904.988.785 4.49-.913 3.506-1.698-1.435-1.14-2.8-2.38-4.133-3.667 3.01-2.696 6.542-5.544 7.3-9.465.29-1.51-3.57-.675-3.84.715M733.908 329.31c1.936 1.21 4.272 1.08 6.47.944 3.98-.252 8.557.028 12.465.75 1.576.293 4.452-2.195 2.097-2.626-3.097-.572-6.195-.686-9.34-.74-2.428-.043-6.7.665-8.84-.667-1.35-.847-4.673 1.205-2.852 2.34M733.347 317.225c.993.626 4.31-1.134 3.524-1.625-.056-.05-.116-.097-.178-.147 4.637-.79 10.04.306 14.02 2.286 1.072.53 4.26-1.262 3.53-1.628-6.088-3.026-14.126-3.79-20.565-1.45-.233.086-2.043.817-1.65 1.36.532.744.453.658 1.32 1.203M628.598 342.16c-5.117-1.5 4.574-6.116 3.983-5.805.13-.07.27-.12.4-.186 1.236 4.18 1.047 7.585-4.382 5.99m22.058-11.454c-3.247-2.212-8.055-.264-11.23.82-.583.2-1.744.613-3.197 1.182-1.1-2.733-2.567-5.378-3.573-8.115-.746-2.03-1.18-4.203-1.05-6.367.22-3.633 4.624 3.157 5.232 4.18.69 1.166 4.338-.372 3.79-1.293-2.497-4.208-5.11-8.22-10.295-5.79-3.96 1.854-2.5 7.404-1.47 10.564.522 1.603 2.28 5.08 3.508 8.444-6.237 2.824-13.164 7.045-6.764 9.784 6.65 2.846 13.514-1.443 11.55-8.673-.094-.343-.236-.678-.35-1.02 1.053-.43 2.117-.846 3.18-1.24 2.703-.997 5.478-1.932 8.1-.143 1.936 1.312 2.247 4.636 1.226 6.484-.795 1.455 3.016.712 3.56-.28 1.705-3.09.655-6.574-2.22-8.534" fill-opacity=".2" fill="#45555F"/>
    <path d="M438.992 321.79c-8.476.197-17.943 1.713-26.337-.436-1.293-.333-3.533 2.22-1.654 2.715 2.635 9.552 3.833 19.43 4.62 29.345.424 5.354.65 10.758.56 16.13-.03 2.182-.056 4.296-.336 6.475-.386 3.018-3.7-3.688-4.558-4.915-5.743-8.215-15.044-19.588-17.732-29.9.472-.29.787-.59.662-.766-.532-.657-.95-1.374-1.26-2.156-.4-.867-3.917.34-3.79 1.295 1.55 11.803 12.656 22.667 18.327 32.818 2.028 3.628 4.996 7.59 9.38 6.093 3.496-1.19 3.037-5.792 3.08-8.773.17-12.192-.844-24.372-2.73-36.415-.454-2.895-1.132-5.715-1.92-8.502 4.518.423 9.02-.08 13.572-.055 9.238.044 18.467-.31 27.68-.8 17.76-.934 74.534-5.67 88.348-7.592 0 0 1.363-2.36 1.468-2.37 0 0-59.277 4.975-76.933 6.316-10.13.77-20.28 1.252-30.445 1.49" fill-opacity=".2" fill="#45555F"/>
  </g>
</svg>
