<?xml version="1.0" encoding="UTF-8" standalone="no"?>
<!-- Created with Inkscape (http://www.inkscape.org/) -->

<svg
   xmlns:dc="http://purl.org/dc/elements/1.1/"
   xmlns:cc="http://creativecommons.org/ns#"
   xmlns:rdf="http://www.w3.org/1999/02/22-rdf-syntax-ns#"
   xmlns:svg="http://www.w3.org/2000/svg"
   xmlns="http://www.w3.org/2000/svg"
   xmlns:sodipodi="http://sodipodi.sourceforge.net/DTD/sodipodi-0.dtd"
   xmlns:inkscape="http://www.inkscape.org/namespaces/inkscape"
   width="210mm"
   height="297mm"
   viewBox="0 0 210 297"
   version="1.1"
   id="svg57"
   inkscape:version="0.92.1 r15371"
   sodipodi:docname="infoMenu1v3.svg">
  <defs
     id="defs51">
    <inkscape:path-effect
       effect="mirror_symmetry"
       start_point="131.6526,105.62347"
       end_point="131.6526,139.99283"
       center_point="131.6526,122.80815"
       id="path-effect403"
       is_visible="true"
       mode="free"
       discard_orig_path="true"
       fuse_paths="false"
       oposite_fuse="false" />
    <clipPath
       clipPathUnits="userSpaceOnUse"
       id="clipPath802">
      <g
         inkscape:label="Clip"
         id="use804">
        <g
           id="g865">
          <g
             id="g859"
             transform="matrix(3.9538045,0,0,3.9538045,-496.73574,-605.48252)">
            <g
               id="g831"
               transform="matrix(0.40216666,0,0,0.40216666,89.940867,161.67159)">
              <circle
                 r="39.352596"
                 cy="24.418785"
                 cx="153.92982"
                 id="circle827"
                 style="fill:#000000;fill-opacity:1;stroke-width:0.82236832" />
              <circle
                 style="fill:#ffffff;fill-opacity:1;stroke-width:0.70428467"
                 id="circle829"
                 cx="153.92982"
                 cy="24.418785"
                 r="33.701965" />
            </g>
            <path
               sodipodi:type="star"
               style="fill:#000000;fill-opacity:1;stroke-width:0.65789473"
               id="path833"
               sodipodi:sides="3"
               sodipodi:cx="-120.73115"
               sodipodi:cy="-10.897655"
               sodipodi:r1="10.897643"
               sodipodi:r2="5.4488215"
               sodipodi:arg1="1.5707963"
               sodipodi:arg2="2.6179939"
               inkscape:flatsided="false"
               inkscape:rounded="0"
               inkscape:randomized="0"
               d="M -120.73115,-1.1444092e-5 -125.44997,-8.1732439 l -4.71881,-8.1732321 9.43763,0 9.43764,0 -4.71882,8.1732323 z"
               inkscape:transform-center-x="-3.0635054e-006"
               inkscape:transform-center-y="0.6628112"
               transform="matrix(0.42016306,0,0,0.24328601,202.57312,190.03507)" />
            <g
               inkscape:path-effect="#path-effect403"
               id="g857"
               transform="rotate(-37.458081,60.094404,275.06274)">
              <g
                 transform="translate(14.838147,4.1081897)"
                 id="g855">
                <g
                   id="g843"
                   transform="translate(-0.5007124,5.3915961)">
                  <g
                     transform="matrix(0.40216666,0,0,0.40216666,119.67398,229.32973)"
                     id="g839">
                    <circle
                       style="fill:#000000;fill-opacity:1;stroke-width:0.82236832"
                       id="circle835"
                       cx="153.92982"
                       cy="24.418785"
                       r="39.352596"
                       d="m -205.01295,24.418785 c 0,21.733839 17.61875,39.352596 39.35259,39.352596 21.73384,0 39.3526,-17.618757 39.3526,-39.352596 0,-21.7338387 -17.61876,-39.352596 -39.3526,-39.352596 -21.73384,0 -39.35259,17.6187573 -39.35259,39.352596 z" />
                    <circle
                       r="33.701965"
                       cy="24.418785"
                       cx="153.92982"
                       id="circle837"
                       style="fill:#ffffff;fill-opacity:1;stroke-width:0.70428467"
                       d="m -199.36232,24.418785 c 0,18.613082 15.08888,33.701965 33.70196,33.701965 18.61308,0 33.70197,-15.088883 33.70197,-33.701965 0,-18.6130814 -15.08889,-33.7019652 -33.70197,-33.7019652 -18.61308,0 -33.70196,15.0888838 -33.70196,33.7019652 z" />
                  </g>
                  <path
                     transform="matrix(0.42016306,0,0,0.24328601,232.30624,257.69321)"
                     inkscape:transform-center-y="0.6628112"
                     inkscape:transform-center-x="-3.0635054e-006"
                     d="m -426.63289,-1.1444092e-5 4.71882,-8.173232455908 4.71882,-8.1732321 -9.43764,0 -9.43764,0 4.71882,8.1732323 z"
                     inkscape:randomized="0"
                     inkscape:rounded="0"
                     inkscape:flatsided="false"
                     sodipodi:arg2="2.6179939"
                     sodipodi:arg1="1.5707963"
                     sodipodi:r2="5.4488215"
                     sodipodi:r1="10.897643"
                     sodipodi:cy="-10.897655"
                     sodipodi:cx="-120.73115"
                     sodipodi:sides="3"
                     id="path841"
                     style="fill:#000000;fill-opacity:1;stroke-width:0.65789473"
                     sodipodi:type="star" />
                </g>
                <g
                   transform="matrix(-0.26024003,-0.96555211,-0.96555211,0.26022754,459.24516,357.63292)"
                   id="g853">
                  <g
                     id="g849"
                     transform="matrix(0.40216666,0,0,0.40216666,119.67398,229.32973)">
                    <circle
                       r="39.352596"
                       cy="24.418785"
                       cx="153.92982"
                       id="circle845"
                       style="fill:#000000;fill-opacity:1;stroke-width:0.82236832"
                       d="m 271.11794,313.22083 c -10.9217,-18.79018 -35.00793,-25.16841 -53.7981,-14.2462 -18.79017,10.92222 -25.16884,35.00887 -14.24714,53.79905 10.92169,18.79017 35.00792,25.16841 53.79809,14.24619 18.79018,-10.92222 25.16884,-35.00887 14.24715,-53.79904 z" />
                    <circle
                       style="fill:#ffffff;fill-opacity:1;stroke-width:0.70428467"
                       id="circle847"
                       cx="153.92982"
                       cy="24.418785"
                       r="33.701965"
                       d="m 266.23263,316.06052 c -9.35344,-16.0921 -29.98114,-21.55448 -46.07323,-12.20059 -16.0921,9.3539 -21.55485,29.98196 -12.2014,46.07405 9.35345,16.0921 29.98114,21.55449 46.07324,12.20059 16.09209,-9.3539 21.55484,-29.98195 12.20139,-46.07405 z" />
                  </g>
                  <path
                     sodipodi:type="star"
                     style="fill:#000000;fill-opacity:1;stroke-width:0.65789473"
                     id="path851"
                     sodipodi:sides="3"
                     sodipodi:cx="-120.73115"
                     sodipodi:cy="-10.897655"
                     sodipodi:r1="10.897643"
                     sodipodi:r2="5.4488215"
                     sodipodi:arg1="1.5707963"
                     sodipodi:arg2="2.6179939"
                     inkscape:flatsided="false"
                     inkscape:rounded="0"
                     inkscape:randomized="0"
                     d="m -63.305536,367.98389 -1.701503,11.16175 -1.701504,11.16175 8.159388,-8.19102 8.159388,-8.19103 -6.457885,-2.97072 z"
                     inkscape:transform-center-x="-3.0635054e-006"
                     inkscape:transform-center-y="0.6628112"
                     transform="matrix(0.42016306,0,0,0.24328601,232.30624,257.69321)" />
                </g>
              </g>
            </g>
          </g>
          <polygon
             transform="matrix(1.5658449,0,0,1.5658449,34.215071,1.7167926)"
             id="polygon861"
             points="49.361,60.152 49.361,41.747 49.361,36.802 36.163,36.802 36.163,41.878 39.209,41.878 39.209,60.152 36.163,60.152 36.163,65.229 52.407,65.229 52.407,60.152 "
             style="fill:#010101" />
          <circle
             id="circle863"
             r="7.9482293"
             cy="46.420059"
             cx="103.55857"
             style="fill:#010101;stroke-width:1.56584489" />
        </g>
      </g>
    </clipPath>
  </defs>
  <sodipodi:namedview
     id="base"
     pagecolor="#ffffff"
     bordercolor="#666666"
     borderopacity="1.0"
     inkscape:pageopacity="0.0"
     inkscape:pageshadow="2"
     inkscape:zoom="0.63"
     inkscape:cx="144.44444"
     inkscape:cy="544.53988"
     inkscape:document-units="mm"
     inkscape:current-layer="layer1"
     showgrid="false"
     inkscape:window-width="1920"
     inkscape:window-height="1001"
     inkscape:window-x="-9"
     inkscape:window-y="-9"
     inkscape:window-maximized="1" />
  <metadata
     id="metadata54">
    <rdf:RDF>
      <cc:Work
         rdf:about="">
        <dc:format>image/svg+xml</dc:format>
        <dc:type
           rdf:resource="http://purl.org/dc/dcmitype/StillImage" />
        <dc:title></dc:title>
      </cc:Work>
    </rdf:RDF>
  </metadata>
  <g
     inkscape:label="Layer 1"
     inkscape:groupmode="layer"
     id="layer1">
    <g
       transform="matrix(0.67844641,0,0,0.67844641,179.0947,-119.77421)"
       id="g106">
      <path
         inkscape:connector-curvature="0"
         d="m -214,445.3 c 0.1,0.1 0.2,0.2 0.3,0.2 1.8,1 3,1.5 4.2,2 1.1,0.5 2.3,0.9 3.9,1.8 0.5,0.3 1.9,0.3 2.5,0.1 1.3,-0.5 1.7,-0.2 2.2,0.1 0.5,0.3 0.9,0.5 1.5,0.5 0.5,0 1.1,-0.2 1.8,-0.6 0.4,-0.2 1,-1 2.5,-2.9 0.7,-0.9 1.7,-2.3 2,-2.5 0.3,-0.2 0.4,-0.6 0.3,-0.9 -0.2,-0.3 -0.6,-0.5 -0.9,-0.4 -2.1,0.8 -4.1,0.9 -4.4,0.9 0,0 -0.1,0 -0.1,0 -3.6,0 -5.6,0 -7.6,0 -2,0 -4.2,0 -8,0 -0.3,0 -0.6,0.2 -0.7,0.5 -0.1,0.3 0,0.6 0.2,0.8 0.1,0.3 0.2,0.3 0.3,0.4 z m 8.1,-0.1 c 2,0 4,0 7.5,0 0.3,0 0.8,0 1.7,-0.1 0.3,0 0.7,-0.1 1.1,-0.2 -0.2,0.2 -0.4,0.5 -0.6,0.8 -0.7,0.9 -1.8,2.4 -2,2.6 -1,0.6 -1.3,0.4 -1.8,0.1 -0.4,-0.3 -1,-0.6 -1.8,-0.6 -0.5,0 -1,0.1 -1.7,0.3 0,0 0,0 -0.1,0 -0.2,0.1 -1,0 -1.2,0 -1.7,-0.9 -2.9,-1.4 -4.1,-1.9 -0.7,-0.3 -1.4,-0.6 -2.3,-1 2.3,0 3.8,0 5.3,0 z"
         id="path88" />
      <path
         inkscape:connector-curvature="0"
         d="m -164.9,400.5 h -6.1 v -3.7 c 0,-0.4 -0.3,-0.7 -0.7,-0.7 -2.4,0 -5.6,0 -8.8,0 -2.4,0 -4.9,0 -6.9,0 l 5.1,-13.7 11,-3.4 c 0.4,-0.1 0.6,-0.5 0.5,-0.9 -0.1,-0.4 -0.5,-0.6 -0.9,-0.5 l -11.4,3.5 c -0.2,0.1 -0.4,0.2 -0.5,0.4 L -189,396 c -0.1,0 -0.2,0 -0.3,0 0,0 -0.1,0 -0.1,0 -3,0 -6.1,0 -9.1,0 -1.1,0 -2.1,0 -3.2,0 h -1 c -0.4,0 -0.7,0.3 -0.7,0.7 v 3.7 h -6.1 c -0.4,0 -0.7,0.3 -0.7,0.7 v 7.2 c 0,0.4 0.3,0.7 0.7,0.7 0.4,0 0.8,0 1.2,0 1,0 1.9,0 2.9,0 0,0 0.1,0 0.1,0 0,0 0,0 0,0.1 0.3,1.5 0.7,3.8 1.1,6 0.3,1.5 0.6,2.9 0.8,4.1 -5.2,-1.8 -10.3,-1.4 -10.6,-1.4 0,0 0,0 0,0 -7.8,1.1 -11.8,5.3 -13.7,8.6 -2.1,3.6 -2.3,6.9 -2.3,7 0,0.2 0.1,0.4 0.2,0.5 0,0 0,0 0,0 -1.7,3.6 0.2,5.8 0.5,6.2 1.1,1.4 2.7,1.9 4.5,1.6 2,-0.4 3.1,-1.6 3.4,-3.5 0.1,-0.5 0.2,-0.5 0.5,-0.6 0.3,0 0.4,0 0.5,0.6 0.1,1.1 0.6,2 1.6,2.7 0.8,0.6 1.8,0.9 2.7,0.9 0.5,0 1.1,-0.1 1.6,-0.3 1.4,-0.6 2.4,-1.8 2.7,-3.3 0.1,-0.5 0.3,-0.6 0.6,-0.5 0.5,0 0.5,0.2 0.5,0.4 0,1.1 0.5,2.1 1.5,2.8 1.1,0.8 2.7,1.2 3.9,0.9 2,-0.5 3.2,-1.8 3.2,-3.5 0,-0.7 0.2,-0.7 0.5,-0.7 0,0 0,0 0,0 0.1,0 0.4,0 0.5,0.6 0,1.2 0.6,2.1 1.8,2.8 1.7,1 3.9,0.9 5.4,-0.3 1.4,-1.1 1.9,-3 1.3,-5 0,-0.3 -0.1,-0.9 -0.6,-1.5 0.2,0 0.4,-0.1 0.5,-0.2 0.1,-0.1 0.2,-0.3 0.2,-0.5 -0.5,-8.8 -7,-12.5 -7.3,-12.7 -0.6,-0.4 -1.3,-0.7 -1.9,-0.9 -0.1,-0.4 -0.1,-0.7 -0.2,-1.1 h 31.3 l -0.7,3.9 c 0,0 0,0 0,0 -0.2,2 -0.6,5.4 -1,9.1 -0.6,5.8 -1.3,12.3 -1.7,15.6 -0.2,0.9 -0.3,1.8 -0.5,2.7 h -18.9 c -0.1,0 -0.3,0 -0.4,0.1 H -230 c 0,0 0,0 0,0 -0.2,0 -0.3,0.1 -0.4,0.1 -0.2,0.1 -1.9,1.5 -1.7,3.2 0.1,1 0.8,1.8 2.1,2.3 0.1,0 0.2,0.1 0.3,0.1 l 35.7,0.3 c 0,0 0,0 0,0 0.1,0 0.3,0 0.4,-0.1 0.1,0 1.6,-1.1 1.8,-2.7 0.1,-0.6 -0.1,-1.2 -0.5,-1.8 h 17.6 c -0.2,1 -0.3,1.9 -0.5,2.9 l -0.5,2.6 h -18.5 c -0.3,0 -0.5,0.2 -0.6,0.4 h -33.9 c -0.4,0 -0.7,0.3 -0.7,0.7 0,0.2 -0.1,4.3 3.1,5 0,0 0.1,0 0.2,0 h 29.9 v 0 c 0.2,0 0.6,0 1.2,-0.5 0.8,-0.7 1.2,-2.1 1.3,-4.2 h 18.9 c 0.4,0 0.7,-0.3 0.7,-0.6 l 0.6,-3.2 c 0.2,-1.2 0.4,-2.3 0.6,-3.5 0.1,-0.1 0.1,-0.2 0.1,-0.4 0,-0.1 0,-0.1 0,-0.1 0.2,-1 0.3,-2 0.5,-3 0,0 0,0 0,0 0.4,-3.3 1.1,-9.8 1.7,-15.6 0.4,-3.7 0.8,-7.1 1,-9.1 l 0.7,-4.1 c 0,-0.1 0,-0.3 0.1,-0.4 0.1,-0.1 0.1,-0.2 0.1,-0.3 0,0 0,-0.1 0,-0.1 0.5,-2.9 1,-5.7 1.5,-8.6 0,-0.1 0,-0.2 0,-0.2 0,0 0.1,0 0.2,0 0.6,0 1.2,0 1.8,0 0.2,0 0.5,0 0.7,0 0.4,0 0.7,-0.3 0.7,-0.7 v -7.2 c -0.3,-0.5 -0.7,-0.9 -1.1,-0.9 z m -28.4,52.8 c -0.1,0.7 -0.7,1.3 -1,1.5 l -35.3,-0.3 c -0.5,-0.2 -1.1,-0.6 -1.1,-1.1 -0.1,-0.6 0.6,-1.4 1,-1.7 h 35.6 c 0.6,0.5 0.8,1.1 0.8,1.6 z m -3.1,8.5 h -29.8 c -1.3,-0.3 -1.7,-1.9 -1.8,-2.8 h 32.6 c -0.2,2.4 -0.9,2.7 -1,2.8 z m -5.5,-64.2 h 0.2 c 1.1,0 2.1,0 3.2,0 3.1,0 6.3,0 9.5,0 0,0 0.1,0 0.1,0 2.3,0 5.3,0 8.3,0 2.9,0 5.8,0 8.1,0 v 2.9 H -202 v -2.9 z m 7,42.2 c -1,0.8 -2.6,0.9 -3.7,0.2 -0.7,-0.4 -1.1,-1 -1.1,-1.7 0,-1.2 -0.8,-2 -1.9,-2 0,0 0,0 0,0 -1.1,0 -1.9,0.8 -1.9,2.1 -0.1,1.4 -1.4,1.9 -2.2,2.1 -0.8,0.2 -1.9,0 -2.7,-0.6 -0.4,-0.3 -0.9,-0.8 -0.9,-1.6 0,-1 -0.7,-1.8 -1.8,-1.8 -0.6,0 -1.8,0.2 -2.1,1.7 -0.2,1.1 -0.9,1.9 -1.8,2.2 -1,0.4 -2,0.2 -2.9,-0.4 -0.6,-0.4 -0.9,-1 -1,-1.7 -0.2,-1.6 -1.3,-1.9 -1.9,-1.9 0,0 0,0 0,0 -0.8,0 -1.8,0.3 -2,1.8 -0.1,1.2 -0.9,1.9 -2.2,2.2 -1.3,0.3 -2.3,-0.1 -3.1,-1.1 0,0 0,0 -0.1,-0.1 -0.1,-0.1 -1.7,-1.8 -0.1,-5 h 33.1 c 0,0 0,0 0,0 1,0.8 1,1.6 1,1.6 0,0.1 0,0.1 0,0.2 0.5,1.7 0.2,3.1 -0.7,3.8 z m -5.7,-17.6 c 0,0 0,0 0,0 0.1,0 5.7,3.3 6.5,10.8 h -34.4 c 0.5,-2.7 2.9,-11.9 14.7,-13.6 0.5,0 7.7,-0.4 13.2,2.8 z m 30.2,-4.8 h -31.8 c -0.1,-0.8 -0.3,-1.5 -0.5,-2.4 -0.4,-2.1 -0.8,-4.3 -1.1,-5.8 h 34.8 c -0.5,2.7 -0.9,5.5 -1.4,8.2 z m 4.8,-9.6 c 0,0 0,0 0,0 -0.6,0 -1.1,0 -1.7,0 -0.2,0 -0.4,0 -0.6,0 h -36.9 c 0,0 -0.1,0 -0.1,0 -0.1,0 -0.3,0 -0.5,0 -0.9,0 -1.9,0 -2.9,0 -0.2,0 -0.3,0 -0.5,0 V 402 h 6.1 c 0.1,0 0.3,0 0.4,-0.1 h 30.2 c 0.1,0.1 0.2,0.1 0.3,0.1 h 6.1 v 5.8 z"
         id="path90" />
      <path
         inkscape:connector-curvature="0"
         d="m -219.7,443.4 c -0.4,-0.2 -1,-0.4 -1.5,-0.4 0,0 0,0 0,0 h -0.4 c -2,0 -4.1,0 -6.2,0.1 -0.8,0 -1.6,0.6 -2,0.9 -0.8,0.6 -1.1,1.7 -0.7,2.6 0.5,1.1 1.4,1.7 2.7,1.8 0.6,0 1.2,0 1.8,0 0.2,0 0.4,0 0.6,0 0.2,0 0.5,0 0.7,0 2.6,0 5.1,0 7.8,0 h 3.2 c 0.3,0 0.6,-0.2 0.7,-0.5 0.1,-0.3 0,-0.6 -0.2,-0.8 -0.1,-0.1 -0.2,-0.1 -0.2,-0.2 -0.1,-0.1 -0.2,-0.2 -0.3,-0.3 l -1.1,-0.6 c -1.7,-0.8 -3.3,-1.7 -4.9,-2.6 z m 2.7,3.7 c -2.6,0 -5.2,0 -7.8,0 -0.2,0 -0.5,0 -0.7,0 -0.8,0 -1.6,0 -2.3,0 -0.7,0 -1.2,-0.3 -1.4,-0.9 -0.1,-0.2 -0.2,-0.6 0.2,-0.9 0.4,-0.3 0.9,-0.6 1.2,-0.6 2,-0.1 4.1,-0.1 6.1,-0.1 h 0.4 c 0,0 0,0 0,0 0.3,0 0.6,0.1 0.8,0.2 1.4,0.8 2.8,1.6 4.2,2.4 h -0.7 z"
         id="path92" />
      <path
         inkscape:connector-curvature="0"
         d="m -223,427.7 c -0.3,-0.3 -0.7,-0.3 -1,0 -0.3,0.3 -0.3,0.7 0,1 l 1.2,1.2 c 0.1,0.1 0.3,0.2 0.5,0.2 0.2,0 0.4,-0.1 0.5,-0.2 0.3,-0.3 0.3,-0.7 0,-1 z"
         id="path94" />
      <path
         inkscape:connector-curvature="0"
         d="m -216.5,423.3 c -0.3,-0.3 -0.7,-0.3 -1,0 -0.3,0.3 -0.3,0.7 0,1 l 1.6,1.6 c 0.1,0.1 0.3,0.2 0.5,0.2 0.2,0 0.4,-0.1 0.5,-0.2 0.3,-0.3 0.3,-0.7 0,-1 z"
         id="path96" />
      <path
         inkscape:connector-curvature="0"
         d="m -209.5,425.3 c 0.4,0 0.7,-0.3 0.7,-0.7 v -2.2 c 0,-0.4 -0.3,-0.7 -0.7,-0.7 -0.4,0 -0.7,0.3 -0.7,0.7 v 2.2 c 0,0.4 0.3,0.7 0.7,0.7 z"
         id="path98" />
      <path
         inkscape:connector-curvature="0"
         d="m -203.9,427.7 c 0.2,0 0.4,-0.1 0.5,-0.2 l 1.8,-1.8 c 0.3,-0.3 0.3,-0.7 0,-1 -0.3,-0.3 -0.7,-0.3 -1,0 l -1.8,1.8 c -0.3,0.3 -0.3,0.7 0,1 0.1,0.1 0.3,0.2 0.5,0.2 z"
         id="path100" />
      <path
         inkscape:connector-curvature="0"
         d="m -199.3,431.4 c 0.1,0 0.2,0 0.3,-0.1 l 1.9,-0.8 c 0.4,-0.2 0.5,-0.6 0.4,-1 -0.2,-0.4 -0.6,-0.5 -1,-0.4 l -1.9,0.8 c -0.4,0.2 -0.5,0.6 -0.4,1 0.1,0.4 0.4,0.5 0.7,0.5 z"
         id="path102" />
      <path
         inkscape:connector-curvature="0"
         d="m -212,430.8 1.6,0.2 c 0,0 0.1,0 0.1,0 0.4,0 0.7,-0.3 0.7,-0.6 0.1,-0.4 -0.2,-0.8 -0.6,-0.8 l -1.6,-0.2 c -0.4,-0.1 -0.8,0.2 -0.8,0.6 -0.1,0.3 0.2,0.7 0.6,0.8 z"
         id="path104" />
    </g>
    <g
       transform="matrix(1.2157849,0,0,1.2157849,49.337357,134.19193)"
       id="g164">
      <path
         inkscape:connector-curvature="0"
         d="m 31.723864,65.185538 c 0,0.420011 -0.343646,0.763657 -0.763656,0.763657 h -5.255482 c -0.420011,0 -0.763656,-0.343646 -0.763656,-0.763657 v -2.173365 c 0,-0.420011 0.343645,-0.763656 0.763656,-0.763656 h 5.255482 c 0.42001,0 0.763656,0.343645 0.763656,0.763656 z"
         id="path162"
         style="stroke-width:0.76365614" />
    </g>
    <g
       transform="matrix(0.92844157,0,0,0.92844157,55.386229,139.92673)"
       id="g168">
      <path
         inkscape:connector-curvature="0"
         d="m 72.404,79.183 c 0,0.55 -0.451,1 -1,1 h -6.883 c -0.55,0 -1,-0.45 -1,-1 v -2.846 c 0,-0.55 0.45,-1 1,-1 h 6.883 c 0.549,0 1,0.45 1,1 z"
         id="path166" />
    </g>
    <path
       inkscape:connector-curvature="0"
       d="m 126.82889,172.77593 h -1.7863 v -10.60559 c 0,-2.04256 -1.67119,-3.71375 -3.71379,-3.71375 H 81.208037 c -2.042554,0 -3.713746,1.67119 -3.713746,3.71375 v 10.60465 h -1.634982 c -0.510644,0 -0.928434,0.41779 -0.928434,0.92849 v 10.70676 c 0,0.51064 0.41779,0.92843 0.928434,0.92843 h 1.634982 v 18.49271 c 0,2.04258 1.671192,3.7138 3.713746,3.7138 H 121.3288 c 2.0426,0 3.71379,-1.67122 3.71379,-3.7138 v -18.49175 h 1.7863 c 0.51157,0 0.92845,-0.41781 0.92845,-0.92848 v -10.70679 c 0,-0.51062 -0.41688,-0.92843 -0.92845,-0.92843 z M 93.639876,162.30865 c 0,-0.51062 0.417816,-0.92843 0.928457,-0.92843 h 13.132807 c 0.51064,0 0.92843,0.41781 0.92843,0.92843 v 3.11032 c 0,0.51062 -0.41779,0.92843 -0.92843,0.92843 H 94.568333 c -0.510641,0 -0.928457,-0.41781 -0.928457,-0.92843 z m -8.155429,38.08283 c -1.441856,0 -2.611701,-1.1689 -2.611701,-2.61171 0,-1.44278 1.168898,-2.61168 2.611701,-2.61168 1.442813,0 2.611723,1.1689 2.611723,2.61168 0,1.44281 -1.16891,2.61171 -2.611723,2.61171 z m 25.642643,0.83377 c 0,0.50968 -0.41779,0.92843 -0.92843,0.92843 H 92.070824 c -0.511594,0 -0.928424,-0.41875 -0.928424,-0.92843 v -0.99158 c 0,-0.50971 0.41683,-0.92846 0.928424,-0.92846 h 18.127836 c 0.51064,0 0.92843,0.41875 0.92843,0.92846 z m 0,-5.84364 c 0,0.51159 -0.41779,0.92844 -0.92843,0.92844 H 92.070824 c -0.511594,0 -0.928424,-0.41685 -0.928424,-0.92844 v -0.9897 c 0,-0.51156 0.41683,-0.92846 0.928424,-0.92846 h 18.127836 c 0.51064,0 0.92843,0.4169 0.92843,0.92846 z m 5.92439,5.00987 c -1.44188,0 -2.61172,-1.1689 -2.61172,-2.61171 0,-1.44278 1.16984,-2.61168 2.61172,-2.61168 1.44188,0 2.61171,1.1689 2.61171,2.61168 0,1.44281 -1.16983,2.61171 -2.61171,2.61171 z m 2.84196,-16.42688 c 0,2.04347 -1.67119,3.71372 -3.71378,3.71372 H 86.089784 c -2.043504,0 -3.713745,-1.67025 -3.713745,-3.71372 v -10.78571 c 0,-2.04259 1.670241,-3.71378 3.713745,-3.71378 h 30.088956 c 2.04257,0 3.71376,1.67119 3.71376,3.71378 v 10.78571 z"
       id="path170"
       style="stroke-width:0.92844152" />
    <g
       transform="matrix(1.2513997,0,0,1.2513997,157.00209,136.15989)"
       id="g233">
      <g
         id="g231"
         transform="translate(-19.672899,3.6722744)">
        <path
           style="fill:none;stroke:#000000;stroke-width:2;stroke-linecap:round;stroke-linejoin:round;stroke-miterlimit:10"
           inkscape:connector-curvature="0"
           stroke-miterlimit="10"
           d="m 35.5,37 c 5.2,0 9.5,-4.3 9.5,-9.5 0,-3.2 -1.6,-6 -4,-7.8 0,-0.2 0,-0.5 0,-0.7 C 41,12.4 35.6,7 29,7 22.4,7 17,12.4 17,19 c 0,1.2 0.2,2.4 0.5,3.5 C 16,21 13.9,20 11.5,20 6.8,20 3,23.8 3,28.5 3,33.2 6.8,37 11.5,37"
           id="path211" />
        <path
           style="fill:none;stroke:#000000;stroke-width:2;stroke-linecap:round;stroke-miterlimit:10"
           inkscape:connector-curvature="0"
           stroke-miterlimit="10"
           d="M 19,35.5 C 19,36.9 17.9,38 16.5,38 15.1,38 14,36.9 14,35.5 14,34.1 16.5,31 16.5,31 c 0,0 2.5,3.1 2.5,4.5 z"
           id="path213" />
        <path
           style="fill:none;stroke:#000000;stroke-width:2;stroke-linecap:round;stroke-miterlimit:10"
           inkscape:connector-curvature="0"
           stroke-miterlimit="10"
           d="M 35,43.5 C 35,44.9 33.9,46 32.5,46 31.1,46 30,44.9 30,43.5 30,42.1 32.5,39 32.5,39 c 0,0 2.5,3.1 2.5,4.5 z"
           id="path215" />
        <path
           style="fill:none;stroke:#000000;stroke-width:2;stroke-linecap:round;stroke-miterlimit:10"
           inkscape:connector-curvature="0"
           stroke-miterlimit="10"
           d="M 30,35.5 C 30,36.9 28.9,38 27.5,38 26.1,38 25,36.9 25,35.5 25,34.1 27.5,31 27.5,31 c 0,0 2.5,3.1 2.5,4.5 z"
           id="path217" />
        <path
           style="fill:none;stroke:#000000;stroke-width:2;stroke-linecap:round;stroke-miterlimit:10"
           inkscape:connector-curvature="0"
           stroke-miterlimit="10"
           d="M 25,43.5 C 25,44.9 23.9,46 22.5,46 21.1,46 20,44.9 20,43.5 20,42.1 22.5,39 22.5,39 c 0,0 2.5,3.1 2.5,4.5 z"
           id="path219" />
        <path
           style="fill:none;stroke:#000000;stroke-width:2;stroke-linecap:round;stroke-linejoin:round;stroke-miterlimit:10"
           inkscape:connector-curvature="0"
           stroke-miterlimit="10"
           d="M 8.8,20.4 C 6.1,17.2 6.5,12.5 9.6,9.8 12.7,7.1 17.5,7.5 20.2,10.6"
           id="path221" />
        <line
           style="fill:none;stroke:#000000;stroke-width:2;stroke-linecap:round;stroke-linejoin:round;stroke-miterlimit:10"
           stroke-miterlimit="10"
           x1="5.0999999"
           y1="9.5"
           x2="2.7"
           y2="8.3999996"
           id="line223" />
        <line
           style="fill:none;stroke:#000000;stroke-width:2;stroke-linecap:round;stroke-linejoin:round;stroke-miterlimit:10"
           stroke-miterlimit="10"
           x1="17.299999"
           y1="4.9000001"
           x2="18.1"
           y2="2.5"
           id="line225" />
        <line
           style="fill:none;stroke:#000000;stroke-width:2;stroke-linecap:round;stroke-linejoin:round;stroke-miterlimit:10"
           stroke-miterlimit="10"
           x1="3.8"
           y1="17"
           x2="1.3"
           y2="17.299999"
           id="line227" />
        <line
           style="fill:none;stroke:#000000;stroke-width:2;stroke-linecap:round;stroke-linejoin:round;stroke-miterlimit:10"
           stroke-miterlimit="10"
           x1="10.2"
           y1="4.9000001"
           x2="9.1999998"
           y2="2.5"
           id="line229" />
      </g>
    </g>
    <g
       id="g986"
       transform="matrix(0.66106926,0,0,0.66106926,32.643275,53.9385)">
      <g
         transform="translate(4.9304894,4.6197104)"
         id="g969">
        <path
           sodipodi:type="star"
           style="fill:#000000;fill-opacity:1;stroke-width:0.65789473"
           id="path358"
           sodipodi:sides="3"
           sodipodi:cx="-120.73115"
           sodipodi:cy="-10.897655"
           sodipodi:r1="10.897643"
           sodipodi:r2="5.4488215"
           sodipodi:arg1="1.5707963"
           sodipodi:arg2="2.6179939"
           inkscape:flatsided="false"
           inkscape:rounded="0"
           inkscape:randomized="0"
           d="M -120.73115,-1.1444092e-5 -125.44997,-8.1732439 l -4.71881,-8.1732321 9.43763,0 9.43764,0 -4.71882,8.1732323 z"
           inkscape:transform-center-x="-3.0635054e-006"
           inkscape:transform-center-y="0.6628112"
           transform="matrix(1.6612426,0,0,0.96190532,299.99903,144.1991)" />
        <g
           id="g431"
           transform="matrix(3.1385241,-2.4046281,2.4046281,3.1385241,-1056.9167,-261.19104)">
          <g
             transform="translate(-0.5007124,5.3915961)"
             id="g409">
            <g
               id="g397"
               transform="matrix(0.40216666,0,0,0.40216666,119.67398,229.32973)">
              <circle
                 r="39.352596"
                 cy="24.418785"
                 cx="153.92982"
                 id="circle393"
                 style="fill:#000000;fill-opacity:1;stroke-width:0.82236832" />
              <circle
                 style="fill:#ffffff;fill-opacity:1;stroke-width:0.70428467"
                 id="circle395"
                 cx="153.92982"
                 cy="24.418785"
                 r="33.701965" />
            </g>
            <path
               sodipodi:type="star"
               style="fill:#000000;fill-opacity:1;stroke-width:0.65789473"
               id="path399"
               sodipodi:sides="3"
               sodipodi:cx="-120.73115"
               sodipodi:cy="-10.897655"
               sodipodi:r1="10.897643"
               sodipodi:r2="5.4488215"
               sodipodi:arg1="1.5707963"
               sodipodi:arg2="2.6179939"
               inkscape:flatsided="false"
               inkscape:rounded="0"
               inkscape:randomized="0"
               d="M -120.73115,-1.1444092e-5 -125.44997,-8.1732439 l -4.71881,-8.1732321 9.43763,0 9.43764,0 -4.71882,8.1732323 z"
               inkscape:transform-center-x="-3.0635054e-006"
               inkscape:transform-center-y="0.6628112"
               transform="matrix(0.42016306,0,0,0.24328601,232.30624,257.69321)" />
          </g>
          <g
             id="g419"
             transform="matrix(-0.26024003,-0.96555211,-0.96555211,0.26022754,459.24516,357.63292)">
            <g
               transform="matrix(0.40216666,0,0,0.40216666,119.67398,229.32973)"
               id="g415">
              <circle
                 style="fill:#000000;fill-opacity:1;stroke-width:0.82236832"
                 id="circle411"
                 cx="153.92982"
                 cy="24.418785"
                 r="39.352596" />
              <circle
                 r="33.701965"
                 cy="24.418785"
                 cx="153.92982"
                 id="circle413"
                 style="fill:#ffffff;fill-opacity:1;stroke-width:0.70428467" />
            </g>
            <path
               transform="matrix(0.42016306,0,0,0.24328601,232.30624,257.69321)"
               inkscape:transform-center-y="0.6628112"
               inkscape:transform-center-x="-3.0635054e-006"
               d="M -120.73115,-1.1444092e-5 -125.44997,-8.1732439 l -4.71881,-8.1732321 9.43763,0 9.43764,0 -4.71882,8.1732323 z"
               inkscape:randomized="0"
               inkscape:rounded="0"
               inkscape:flatsided="false"
               sodipodi:arg2="2.6179939"
               sodipodi:arg1="1.5707963"
               sodipodi:r2="5.4488215"
               sodipodi:r1="10.897643"
               sodipodi:cy="-10.897655"
               sodipodi:cx="-120.73115"
               sodipodi:sides="3"
               id="path417"
               style="fill:#000000;fill-opacity:1;stroke-width:0.65789473"
               sodipodi:type="star" />
          </g>
        </g>
      </g>
      <polygon
         transform="matrix(1.5658449,0,0,1.5658449,35.055018,4.2366341)"
         id="polygon455"
         points="52.407,65.229 52.407,60.152 49.361,60.152 49.361,41.747 49.361,36.802 36.163,36.802 36.163,41.878 39.209,41.878 39.209,60.152 36.163,60.152 36.163,65.229 "
         style="fill:#010101" />
      <circle
         id="circle457"
         r="7.9482293"
         cy="48.939899"
         cx="104.39852"
         style="fill:#010101;stroke-width:1.56584489" />
    </g>
  </g>
</svg>
